/* XPM */
static char *door_5_resized[] = {
/* columns rows colors chars-per-pixel */
"64 64 201 2 ",
"   c #070505",
".  c #0C0606",
"X  c #0E0907",
"o  c #0D0708",
"O  c #0D0909",
"+  c #120707",
"@  c #110807",
"#  c #110709",
"$  c #130B0B",
"%  c #1B0D0D",
"&  c #0F120D",
"*  c #15110F",
"=  c #1D100F",
"-  c #130E11",
";  c #1C0E10",
":  c #0F1114",
">  c #151210",
",  c #1A1514",
"<  c #161914",
"1  c #1B1917",
"2  c #14151B",
"3  c #1B161B",
"4  c #14181E",
"5  c #1C1D1B",
"6  c #210E0F",
"7  c #220E12",
"8  c #241314",
"9  c #2B1516",
"0  c #261915",
"q  c #2D1917",
"w  c #24161B",
"e  c #2C161A",
"r  c #221D1B",
"t  c #2C1B19",
"y  c #33161A",
"u  c #341718",
"i  c #341B1C",
"p  c #3B1B1D",
"a  c #1E211D",
"s  c #24211E",
"d  c #28221F",
"f  c #33211D",
"g  c #3C211E",
"h  c #161920",
"j  c #1B1E21",
"k  c #2B1C20",
"l  c #361722",
"z  c #351C23",
"x  c #3C1C21",
"c  c #1C2126",
"v  c #1D242B",
"b  c #1C2734",
"n  c #1F2931",
"m  c #242422",
"M  c #2C2622",
"N  c #252A24",
"B  c #2D2925",
"V  c #23252C",
"C  c #26262D",
"Z  c #2B2C2B",
"A  c #332426",
"S  c #3B2322",
"D  c #312A27",
"F  c #32232C",
"G  c #3D2629",
"H  c #342D2A",
"J  c #2E322C",
"K  c #2E382D",
"L  c #34322D",
"P  c #39322E",
"I  c #212C35",
"U  c #232F3B",
"Y  c #2B2D3A",
"T  c #362C36",
"R  c #23313E",
"E  c #333433",
"W  c #3C3431",
"Q  c #353A32",
"!  c #393B34",
"~  c #37343D",
"^  c #3A3B3A",
"/  c #461B1E",
"(  c #45271F",
")  c #431D23",
"_  c #481F28",
"`  c #442424",
"'  c #4B2626",
"]  c #432A25",
"[  c #4C2A25",
"{  c #432529",
"}  c #4B252A",
"|  c #442B2B",
" . c #4E2A2A",
".. c #53252A",
"X. c #59262B",
"o. c #542C2C",
"O. c #5A2B2C",
"+. c #4E322D",
"@. c #5D352E",
"#. c #4B2933",
"$. c #542A31",
"%. c #552834",
"&. c #5B2C32",
"*. c #413936",
"=. c #5C3134",
"-. c #583736",
";. c #612F2A",
":. c #662E34",
">. c #643335",
",. c #6C3334",
"<. c #653836",
"1. c #653C3B",
"2. c #6B3A3C",
"3. c #783938",
"4. c #7C3B3B",
"5. c #3D483B",
"6. c #56403C",
"7. c #6B403B",
"8. c #243444",
"9. c #2B3443",
"0. c #253748",
"q. c #263A4C",
"w. c #283A4C",
"e. c #3C3942",
"r. c #36394B",
"t. c #273D52",
"y. c #293F53",
"u. c #403846",
"i. c #433D52",
"p. c #733845",
"a. c #2A4055",
"s. c #2B455C",
"d. c #2C455C",
"f. c #3D4154",
"g. c #33455C",
"h. c #2C4760",
"j. c #2E4A64",
"k. c #2F4E69",
"l. c #304B64",
"z. c #3E4A60",
"x. c #304F69",
"c. c #2F516D",
"v. c #31516E",
"b. c #2F5371",
"n. c #325573",
"m. c #335877",
"M. c #385A76",
"N. c #345B7B",
"B. c #39607F",
"V. c #434342",
"C. c #484947",
"Z. c #4C4C4C",
"A. c #4F504F",
"S. c #535353",
"D. c #575857",
"F. c #5A5A5A",
"G. c #656466",
"H. c #717170",
"J. c #833D3F",
"K. c #854546",
"L. c #355F81",
"P. c #366184",
"I. c #396384",
"U. c #376489",
"Y. c #38668B",
"T. c #39698E",
"R. c #3A6C93",
"E. c #3A6F99",
"W. c #3E7097",
"Q. c #3C729B",
"!. c #3D76A2",
"~. c #3E79A6",
"^. c #3E7AA8",
"/. c #416E91",
"(. c #427194",
"). c #42769E",
"_. c #45789E",
"`. c #4177A0",
"'. c #427AA4",
"]. c #497FA6",
"[. c #427EAB",
"{. c #487FA8",
"}. c #4980A7",
"|. c #4481AE",
" X c #4983AD",
".X c #4583B2",
"XX c #4985B2",
"oX c #4C89B5",
"OX c #4D8CB9",
"+X c #548CB5",
"@X c #518EBA",
"#X c #4F90BE",
"$X c #5291BD",
"%X c #5294C2",
"&X c #5698C6",
"*X c #589AC7",
"=X c #5A9CCA",
"-X c #5FA1CC",
";X c #61A2CD",
":X c #62A4D0",
">X c #878787",
/* pixels */
"] 8 X o 8 g p t $ # ..y ; l ` 0 8 p %   O 0 =   X - - - h y.g.y.d.a.q.A k S w o 7 %.% 9 l ( % i q X   $ t # o o O $ $ % % S t $ ",
", $ X o @ ( /  .0 X ; # X # X . % 8 $ $ $ # O > V t.y.h.v.E.Y.k.E.E.R.k.j.a.q.2 2 ; + # # + o 8 8 $ @ * X o $ 0 8 0 p 8 u 7 = # ",
"% . o . . $ # ` o.% e % $ # $ 6 ; $ . + i C Y v.n.m.L.!.!.^.Q.n.[.[.^.!.E.m.m.b.l.C 2 % X % 6 % o . % p u 9 8 l ) | S S p / . X ",
"+ $ u 7 o . o $ # . i [ 9 0 $ ] x y % k 9.l.Y.~.^.^.^.[.OXOX].M.%XOXOXoX^.^.^.^.!.L.a.Y - 8 { p 0 7 8 9 e o.p l l H 6.; X $ + 8 ",
". % } [ t $ @ i 8 % 8 <.p 0 6 t k V w.y.j.R.[..XOXOXOXoX'. X Xn.).'.'.{.OX@XOXOX[.[.U.l.y.8.A k $ e S # o e % X . $ e # # o # p ",
". 6 -.@.o.p 8 O.` f 6 % # . 6 c y.j.m.Y.n.[.@XoX).Q.).E.U.Y.Y.x.x.I.U.Y.Q.Q.).'.OXOX!.n.].n.j.q.2 $ O o 6 # + $ $ % . # l , # _ ",
"% i J.7.>.+.i 2.:.O.u + - j b n.L.Q.[.{.T._.R.R.Y.Y.I.L.N.M.N.N.j.n.m.N.P.P.Y.Y./.(._.(.%X'.E.N.l.v j # x 8 % p y l 0 0 %.p % ,.",
", i O.( e $ y ,.' 8 , z 0.j.P.~.^.[.oX X_.N.n.L.L.L.m.m.n.n.n.n.l.n.n.m.n.N.L.L.L.n.N.{..XoX^.^.!.N.d.Y { $ 7 l X...S { p.S 0 ..",
"O o   . X X   X # o 2 y.x.R.^.[.OXOX_.T.U.N.v.x.n.n.n.n.n.l.d.d.d.d.x.n.n.m.n.n.k.v.N.T.T.].OXOX^.~.U.j.8.3 o + %.e $ ` <.= . . ",
"= > 7 0 t ; % ; 8 w y.m.Q.[..XoX).R.P.N.N.n.n.v.x.v.a.y.a.0.c c c v q.a.a.a.c.j.v.n.n.N.N.Y.(.`.OX[.~.R.k.w.;   o # .   X = , % ",
"` f } o.{ l S { T 9.N.!.[.oX.XR.P.L.m.m.j.0.8.8.8.R 5 5 5 5 r d d r 5 5 5 c 8.8.8.8.q.v.n.N.I.U.Q.oXoX^.Q.n.C 6 e 0 6 6 y ` g { ",
"O.>.,.>.+.+.=.>.r.x.!.[.oX].T.U.m.m.n.s.I r s 5 s r M D M M B H H D M M M M r k r s 5 R x.n.n.N.Y.R.|.oX^.E.l.~ | S S ` &.O.&.>.",
"1.2.3.-.-.<.7.f.x._..XoX).Y.L.N.n.a.I V r B H D W D M H W W W W W W *.P H M H W D H M r v R d.n.N.N.R.'.oX[./.l.r. .#.=.,.<.1.3.",
"o.&.` G | #.e.m.v.N.].E.L.L.m.x.0.V M M H P P W W H m H 1 1 w 1 1 1 1 r D t P W P P P D M m I y.n.N.I.L.E.R.n.x.x.F ` ..` o.O...",
"( u 8 9 z r.L.!.`.I.x.Y.U.m.k.8.m H P M D D D M , , > > > * * * * * * > < > > 1 D D D M D P D m 0.v.N.Y.L.v.T.!.E.n.Y t i S ( 7 ",
"= . . $ w x.!.[.OX`.N.m.N.k.I r M H P r 1 > > > = > > > > > > > > > > > > > > > , > , 1 d P H m k 8.n.N.m.I.{.oX[.E.a.- % ; X X ",
"8 p 8 > y.R.E.[.$XT.N.v.s.v r D P H r > > > > > > * > > > > > > > > > * > > > > > > > > , r W H M a I j.n.N.).@X[.~.U.R   $ p i ",
"..K.&.%.k.E.Q.OX(.U.m.c.8.5 D W H 1 > > > > > > > > > > * > > > > > > > > > * > > > > > > > r P P M j y.v.N.Y.).@X[.Q.g.A y 4.3.",
"| G.u.u.l.Y.R.$XR.P.n.a.5 5 H H , > > > > > > > > > > > > > > > * > > > > > > > > > > > > > * 1 P D 5 c j.m.I.T.%X[.E.g.u.e.G.%.",
"U $X).L.x.N.I.$XT.m.v.a.5 s M D , > > > > > > > > * > > > > > * > > > > > * > > > > > > > 5 ^ 5 D M 5 c d.n.m.Q.%X~.L.k.Y.].+XF ",
"h N.'.oXR.x.I.@XT.P.n.y.5 P P m E < 5 < > > > > > > > > > > > * > * > > > > > * > > > , < < J ^ m W D v d.N.I.).%XR.n.`.oX).n.9 ",
"4 j.R.).}.n.N.$XR.N.n.y.k H P , a Z a a < > > > > > * > > > * - > > > > > * > > > > , 5 a < < N L W D c d.m.N.Q.@Xm.L.[.Q.U.y.$ ",
"j j.P.N.N.m.v.(.m.c.c.t.j D H < E G.5 a 5 > > > * > > > > > > > > > > > > > > * > > > a N s < s Q P B c d.v.v.I./.k.m.L.L.L.a., ",
", b h.m.N.I.U.Y.U.U.L.a.5 L P , J G.5 a 5 > > > > > > > > * > > > > * > > > > > > > < a c Z Q N ! *.B c d.v.v.m.N.L.U.U.U.N.j $ ",
"i 2 h.U.Y.Y.L.L.L.L.N.y.j D D , J G.5.< 5 > * * > > > > > > > > > > > > * > > > > - > a < c V.N Q E B c h.n.m.m.N.L.T.T.Y.l.> # ",
"f r 8.y.j.x.j.j.j.j.j.y.5 d D , s C.Z.5 & > > > > > > * > > > * > * > > > > * > > > > & N V.s c Q D r c h.j.j.l.k.k.l.l.y.r.t $ ",
"# . X 2 d.n.n.n.n.j.n.y.4 d M , & 5 A.E 5 > > > > * > > * > > > > > > > * - > > > > < N Z.Z.< 5 L D r c h.v.j.n.n.m.m.y.` 9   X ",
"% + % 3 l.L.L.N.n.j.v.y.5 M M , > m Z.E Z 1 , > > > > > > > > > > > * > > > > > > > k A.F.D.Q 5 Q D k j h.v.x.m.L.U.U.t.9 u + % ",
". $ ) G k.R.Y.Y.I.j.n.a.5 M m > N H.S.J Z V 5 > > > > > > * > * > > > * > > > > * , H S.F.F.A.a L B M c h.b.x.L.T.`.{.y.O   X y ",
"X 7 +.-.k.Q.R.E. Xn.N.a.j W W , E >XF.^ Z m a > * > > > > > > > > > > > * > > > * 1 Z ^ D.D.5.a Q *.D c j.L.x.Y.R.[.+Xg.w - O ) ",
"# 8 ,.-.x.!.!.Q.+Xv.N.a.5 D W , J G.F.S.L m k , > > > > > > * > * > > > * > * > > 5 M E D.Z.5 a Q *.M c j.m.v.R.R.[.oXy.#.e $ X.",
"= ` J.6.k.!.^.[.oXx.v.a.5 D W , a E F.S.Z V m > > > > * > > > > > > > > > > > > , m C ~ F.Z.5 a Z ! M c h.v.b.!.~.[.'.y.p.) 7 3.",
"> $ 7 4 j.R.!.[.`.x.n.y.5 D P 1 c m S.A.Z m a , * > > > > > > * > > > > > > > > , m Z E D.Z.< N J ! M c h.v.n.!.!.^.E.z.K.i - ; ",
"# # # 3 h.R.!.E.E.l.v.y.5 M A m G.D.C.E J Z m > > > > > > > > > * > > > > * > * , V Z Z ^ C.N F.L D m c s.n.k.!.E.^.E.a.r $ # X ",
"i t l H j.R.!.R.E.k.n.y.j H H m D.S.E Z Z C m > > > > * * > > > > > > > > > > > , M J H E ~ s A.L P A c h.v.c.!.E.!.E.y.; 9 t i ",
".. .&.=.l.Y.!.!.Y.k.n.y.5 H P s S.S.J < < k 1 > - > > > > > > > > > > * > > * > > 5 V 1 5 L V.Z.! W B c h.b.k.R.!.^.E.g.} .. .$.",
"<.1.4.6.j.Y.[.@XU.k.L.y.5 M B 1 ! A.Z > , , * * * > > > > > > > > * > > > > > > > < 3 > < Q A.Q Q B M c j.N.k.R.~.^.Q.f.<.<.1.4.",
"=.:.;.*.l.R.[.%XY.k.P.y.5 W E 1 E A.^ Z m * * * > * > > > > > * > > > > > * > > > , Z Z Z f.A.K 5.*.H c j.L.k.Y.~.^.Q.g.o.&.:.:.",
"[ { u F j.Y.[.%XY.k.L.a.k L W 1 K D.A.J V , > > > > > > * > > > > > > > - > > * > 5 Z J V.S.K K Q *.D c j.L.k.R.^.^.Q.a.S `  .z ",
"y % % 3 j.Y.[.[.U.k.m.y.5 H H 1 J S.S.E Z m > * > > > * > > > > > > * > * > > > , s V Q D.Z.< K Q P M c j.m.k.R.~.^.Q.a.0 t 8 $ ",
"# $ . : j.E.Q.L.N.j.v.a.a D P 1 N J A.Q J C > > * > > > > * > * * > > > > > > > > , m E S.6.< K Q *.B c d.v.k.N.U.~.Q.t.O $ + $ ",
") 4.} z j.Q.Q.N.N.l.m.a.5 P W 1 N Z V.V.J C , > > > > > > > > > > > * > * > > > $ 5 J V.C.a N N Q *.B c j.n.k.N.P.Q.R.a.1 7 ,.,.",
"} 4.} i.j.U.L.m.n.j.v.a.j H H 1 N a < e.L C > > > > * > > > * > * > > > > > * > > , ~ D.C.a N N Q P B c j.v.j.n.m.P.P.d.e.z 3.:.",
"u O.A d.j.b.k.k.j.l.n.d.j D D 1 N 5 a Z.L B > > > > > > > > > > > > > > > > > > > , E D.C.v J K Q P B v v.v.j.c.k.c.c.j.h.9...` ",
"@ e k j.Q.`.`.'.).I.'.T.a D D < a a < Z Z C > > > * > > > > * > > > > > > > > > > , E V.m Z N N Q H d I _.'.!.'._.'.'.'.E.y.w u ",
"o + 2 x.XX@X%XOXoXoXOX).j s A 1 a c < < C m > > > > > > > > > > > > * > > > > > $ 5 Z Z < N N N Q D s I }.XXoXoXoXoXoXoX).w.# $ ",
"- U v.j.m.m.L.L.m.m.N.l.5 s d < a a < < B , > > > > > > > * > > > > > > * > > * > 1 Z m < N N N Q d 0 v j.c.m.m.m.m.m.n.v.w.O # ",
"j a.@XQ.R.R.U.R.R.R.E.N.j D D < a a a > m > > > > * > > > > > > * > > > > > > > > , 5 m & N a N Q P d I T.R.R.R.E.R.R.R.).T.2 3 ",
"E.Q.oX#XOXOX@X%X%X%X%X'.c H W 5 a a a a < > > > > * > > > > > > > * > > * > > > * * * < a a a s 5.*.d Y XX#X#X$X%X%X#X#X#XXXQ.W.",
".XQ.n.T.E.Q.^.[.!.!.!.U.m H W 5 J a a a a > * > > > > > > > > * > > > > > > > > * * < a a a a N Q *.d I Y.W.!.^.!.!.Q.W.R.m.^.XX",
"&X!.k.U.R.E.E.E.Y.Y.L.c.5 H P 1 N a a a a * * > > > > > > * > > > > > > > > > * * * < a a v K a 5.*.D V N.P.T.E.T.T.T.T.P.c.|.*X",
"&XQ.k.P.U.Y.U.U.N.m.m.j.j M H 1 N a a a a * * > > > > * > > > * > > * > > > > > * * < a a N 5.5.Q H s v c.n.m.B.U.U.U.Y.B.c.|.*X",
"&X'.n.n.n.n.m.b.c.n.n.j.5 r A 5 K a a a 5 < > > > > > > > > > > * > > > * * , * < * , a a s 5.5.J f r c c.c.c.n.n.m.n.m.b.N..X*X",
"=X&XXX.X.XXX.X.XXXXX.X(.j d B 1 Z a 5 < 5 > > > > * * > > > > > > > * > * , * * * * * a a c N K J B s I }.XX.XXX.X.X.X X.XoX=X-X",
").XXoXoXoXoXOXoXoXoX XR.a r d 1 N a < , < > > > > > > > * > > > > > > > * * * , * * * < 5 N Q K J d s I '. XoXoXoXOXoX|.|. X.XW.",
"j.R.~.^.^.^.^.!.E.R.Y.m.5 r r 1 J < , > * * $ & * * * * * * * * * * * * * * * * * * * * , r N a s s 1 v U.Y.R.E.~.~.~.Q.Q.T.U.s.",
"k.U.R.!.!.!.!.R.Y.P.N.m.c c c c c c c c j j j j j j j j j j j j c 5 5 c j j j j j j j j j j j j v v j n N.N.P.R.E.Q.E.!.Q.T.P.d.",
"k.Y.Y.U.U.P.P.P.L.m.m.k.q.h.j.c.c.j.j.j.j.s.j.j.j.j.c.j.j.j.j.j.j.j.j.j.j.j.j.j.j.h.d.j.j.j.j.j.j.j.s.q.m.m.N.L.P.P.P.P.U.R.P.j.",
"h.n.n.j.k.x.x.x.k.k.k.k.j.m.U.Q.E.P.P.P.N.k.n.m.P.U.Q.P.P.P.P.P.U.U.P.P.P.P.P.P.L.n.l.m.L.L.L.L.L.m.n.h.k.x.k.k.k.c.k.c.k.m.v.d.",
"h.x.n.m.L.L.L.I.P.P.L.P.U.Y.!.^.^.!.!.!.E.n.m.R.Q.~.^.'.~.!.~.!.Q.~.!.~.~.~.!.Q.R.I.n.U.R.!.!.!.R.U.U.N.n.n.L.L.P.N.L.N.L.L.m.j.",
"j.N.Y.).[.|.|.|.[.~.'.[.^..X.X.X.X.X|.^.!.N.E.~.|.&X*X*X*X*X%XXX.X&X&X&X&X&X%X.X[.Y.N.Y.Q.[..X.X[.[.[.).).T.R.R.R.R.R.R.R.R.L.h.",
"k.U.`.&X=X=X=X=X=X$XOX=X-X=X*X*X*X=X&XXXQ.L.!.^.OX*X=X=X=X=X=X=X=X=X=X-X;X:X:X-X=X[.U.Q.OX*X=X=X=X;X=X=X=X@X@X+XXXoXoXXX!.Q.Y.h.",
"x.E.[.&X=X=X*X=X;X;X=X=X-X=X*X=X=X=X=X%X~.Y.!.^.XXXXoXoXOX&X=X=X=X*X*X=X-X-X;X-X=X@XE.^.oXXXoXOX=X;X;X=X;X;X;X-X=X*X=X&XOXOX[.l.",
"U.R.R.`.`._.).'.).`.`.).`.`.`.`.`._.).Q.E.R.R.E.E.R.E.E.E.).).).'.'.).'._.)._.'.).).R.R.E.R.R./.).).].'.).`.`.`.`.`.`.).'.).).L."
};
