/* XPM */
static char *door_1_resized[] = {
/* columns rows colors chars-per-pixel */
"64 64 210 2 ",
"   c #070604",
".  c #0C0606",
"X  c #0B0A07",
"o  c #0D0708",
"O  c #0D0A09",
"+  c #120707",
"@  c #110808",
"#  c #140A0B",
"$  c #1B0D0D",
"%  c #0D110B",
"&  c #11130F",
"*  c #1D100F",
"=  c #150D12",
"-  c #1D0F11",
";  c #0F1014",
":  c #131513",
">  c #1B1313",
",  c #161915",
"<  c #191B17",
"1  c #14151A",
"2  c #1C161C",
"3  c #1C1D1B",
"4  c #210E0E",
"5  c #290F16",
"6  c #231313",
"7  c #2B1415",
"8  c #2B1A16",
"9  c #24161A",
"0  c #2C1519",
"q  c #211D1B",
"w  c #2D1A1B",
"e  c #331516",
"r  c #33171A",
"t  c #341B1C",
"y  c #3B1B1C",
"u  c #1E211D",
"i  c #22221E",
"p  c #29231F",
"a  c #342117",
"s  c #34211D",
"d  c #3B231E",
"f  c #171C24",
"g  c #1D1F23",
"h  c #241D22",
"j  c #2C1F24",
"k  c #321D23",
"l  c #3C1D22",
"z  c #1C2226",
"x  c #1D2429",
"c  c #1F282F",
"v  c #1F2C38",
"b  c #232521",
"n  c #2B2623",
"m  c #252A24",
"M  c #2A2B26",
"N  c #23262C",
"B  c #2A2D29",
"V  c #332322",
"C  c #3C2322",
"Z  c #312A26",
"A  c #39242B",
"S  c #342D29",
"D  c #2C332B",
"F  c #2F392E",
"G  c #33332E",
"H  c #39312E",
"J  c #31382F",
"K  c #212A33",
"L  c #212E39",
"P  c #382D3A",
"I  c #22303D",
"U  c #2C313F",
"Y  c #333533",
"T  c #3C3431",
"R  c #343C32",
"E  c #363837",
"W  c #3B3C3A",
"Q  c #4C1F1E",
"!  c #41231E",
"~  c #431D25",
"^  c #471E28",
"/  c #442322",
"(  c #4A2423",
")  c #4C242B",
"_  c #482A2A",
"`  c #55252A",
"'  c #532B2B",
"]  c #56352B",
"[  c #5C322D",
"{  c #472D35",
"}  c #562B32",
"|  c #403634",
" . c #463739",
".. c #593231",
"X. c #5C3A37",
"o. c #63362F",
"O. c #672A32",
"+. c #673638",
"@. c #364034",
"#. c #384236",
"$. c #3C443A",
"%. c #3D493B",
"&. c #414E3F",
"*. c #6A423B",
"=. c #243544",
"-. c #2D3646",
";. c #273B4E",
":. c #2B3B4C",
">. c #353A45",
",. c #273D51",
"<. c #293E52",
"1. c #473948",
"2. c #503646",
"3. c #723B45",
"4. c #2B4055",
"5. c #2C455C",
"6. c #314355",
"7. c #32455A",
"8. c #3B455B",
"9. c #2E4B64",
"0. c #2F4E69",
"q. c #344961",
"w. c #304E6A",
"e. c #2F506C",
"r. c #31516E",
"t. c #3A536D",
"y. c #2F5A7C",
"u. c #325573",
"i. c #335877",
"p. c #345B7B",
"a. c #385D7A",
"s. c #39607F",
"d. c #434442",
"f. c #464945",
"g. c #4C4843",
"h. c #4C4D4C",
"j. c #56494C",
"k. c #455442",
"l. c #485745",
"z. c #495946",
"x. c #4C514B",
"c. c #4D5E4A",
"v. c #535453",
"b. c #565A55",
"n. c #5C5C5B",
"m. c #4F604C",
"M. c #50614D",
"N. c #5D625D",
"B. c #496275",
"V. c #636463",
"C. c #686867",
"Z. c #6C6C6C",
"A. c #70716F",
"S. c #737373",
"D. c #777977",
"F. c #7C7C7C",
"G. c #7F807F",
"H. c #355F81",
"J. c #366184",
"K. c #396284",
"L. c #376589",
"P. c #38668B",
"I. c #3A698E",
"U. c #3A6C94",
"Y. c #3B6F98",
"T. c #3E7096",
"R. c #3C729C",
"E. c #3D76A2",
"W. c #3E79A6",
"Q. c #3E7AA8",
"!. c #406C8E",
"~. c #406E91",
"^. c #437396",
"/. c #42769E",
"(. c #45799F",
"). c #4177A0",
"_. c #427AA4",
"`. c #487EA5",
"'. c #427EAB",
"]. c #4D82A7",
"[. c #4481AE",
"{. c #4A83AD",
"}. c #5185AC",
"|. c #4683B1",
" X c #4985B2",
".X c #4C89B5",
"XX c #4D8CB9",
"oX c #508CB6",
"OX c #518EBA",
"+X c #4F90BF",
"@X c #5191BE",
"#X c #5394C2",
"$X c #5699C7",
"%X c #5899C7",
"&X c #599CCA",
"*X c #5FA0CC",
"=X c #61A2CD",
"-X c #63A4D0",
";X c #858585",
":X c #8B8B8B",
">X c #939393",
",X c #9C9C9C",
"<X c #A4A4A4",
"1X c #ADADAD",
"2X c #B5B5B5",
"3X c #BCBCBC",
"4X c #C3C3C3",
"5X c #CCCCCC",
"6X c #D4D4D4",
"7X c #E1E1E1",
/* pixels */
"@ 8 # o o o @ $ # $ t s # o @ t y y > o 0 ` $ 0 y _ > V h ;.<.<.q.4.,.f ; = = = $ C 8 o o $ a y t & o ^ / # r C t * C 4     6 6 ",
"# O o @ 6 6 0 r 7 r 7 $ # X X 6 ( ^ _ @ $ - o = ; =.4.q.0.I.Y.u.P./.Y.r.9.,.<.N k > # # o o y Q ) V @ $ $ o $ . o @ 6 * o * & o ",
"y r e 6 r ^ C ! C y ( + o o X o # - ..t $ h f 9.u.u.i.Y.W.W.W.u.).'.Q.W.R.H.i.u.u.v f # o X # + 0 [ 6 7 4 @ # @ 6 $ #   o e r r ",
"0 7 ' C k l n j.6 o # o 6 e # o   @ $ o c 5.p.E.Q.Q.Q.Q..X.X.Xp.{.#X.X.X'.Q.Q.'.W.L.9.-.q @ o . $ # . 6 ' 7 w # s / l $ 5 6 0 ! ",
"$   7 - o o @ 0 # o . X r ' d 6 O 9 -.;.9.J.W.'..XXXXXXX`.`.OXa.!._._._..XXXOXXX|.'.U.w.7.:.f # r 5 & - o.( 6 4 8 t > $ y w   # ",
"o $ # . $ # - . o k 9   ~ X..._ :.9.w.P.0./..X.X_.R./.R.P.L.U.u.w.a.P.L.Y./.Y./. XOX|.u./.J.9.<.{ ) s 6 # $ o # #   X @ # o @ 4 ",
"@ y 7 # y 5 ^ 9 6 ^ ) $ [ *.1.t.p.Y.W.{.U./.^.U.U.I.L.J.p.p.p.a.w.r.i.i.H.H.L.U.U.U.(.!.OX[.E.H.y.1.{ C @ @ & # o 6 > 7 @ @ 6 / ",
"- l > - l ^ ` C / 3.' 6 2.q.a.R.Q.Q. X X`.K.i.p.a.H.i.u.u.u.u.u.9.r.i.i.i.i.p.H.a.p.i./.{..X[.W.W.L.0.:.j 0 d 7 e / y C r r w l ",
"o o # o . ) k @ t *.V I 9.H.W.Q..XXX`.U.L.H.u.w.r.u.u.u.u.e.5.5.5.9.9.r.u.i.u.u.0.r.p.J.P./..XOX'.Q.U.u.7.h > 0 y s - 9 ( 6 . @ ",
"$ @ # $ . o # o . O =.0.P.Q.Q.XX_.T.U.p.p.u.u.u.w.r.5.4.4.;.c 3 g g =.<.<.4.e.0.e.u.u.i.p.J.U./..X|.Q.Y.i.<.: @ o o . O # $ $ . ",
"8 $ y 7 $ 7 0 - $ N u.Y.Q.|.XXE.L.J.p.u.r.<.=.=.=.=.x 3 3 3 i p n q 2 3 3 3 I =.=.=.=.9.u.p.H.J.U.'. X'.W.H.L > * 7 # @ 6 d # 6 ",
"8 _ ' C / ) / C P 5.U.Q. X{.Y.P.a.u.u.0.=.3 q q p q p n n n M Z S Z n Z n n q p q i q K 5.u.u.u.L.U.'..X'.W.u.-.T s r / ..d d [ ",
"] o._ ' ..) ) >.5.~.'..X'.U.H.p.i.9.I x q n S Z H G n S T T T T T H H T H n Z T S S Z p z K 4.u.a.p.L./..X'._.u.7.A ^ +.' C o.' ",
"Q e w C t 7 n 7.r.u.(./.H.K.p.u.4.K n n S S H H H H p Z p u i p q q i p S p S H H H S S n n N =.w.i.H.H.U.Y.a.w.0.U / d 6 / ! 7 ",
"# @ $ * o z 0.R.W.I.u.H.I.a.w.<.z n H Z n S S S b p 3 i F F @.m.m D R R m i i b M S S V n T S i L 9.i.L.P.w.H.E.E.H.>.; $ 4 + + ",
"7 o o 6 p 4.U.Q..X{.J.i.p.u.=.h n S H n > < 3 b $.$.J F m u D @.u u b m $.#.@.f.G m < < q S S Z q K 0.a.i.i./..X'.Q.e.1 o 5 $   ",
"+.n w 3.v.H.Y.Q.OX/.H.u.9.L h n S H n < < m #.V.N.x.B 3 : : , u , % : & i i &.M.Z.l.B 2 < q S S S q N 4.r.p.P.oX XW.U.4.2 +.~ w ",
"y t r +.8.U.Y..X_.U.p.u.4.g n S H q < m W x.Z.F.b.m , u u u u i , u u u , & q 6.S.D.v.f.D i 2 S H S 3 =.w.u.L.U.XX|.W.e.A ) w t ",
"> 6.-.1.7.H.L.oX/.K.p.9.z < Z T q 3 B #.A.F.S.V.m : u u u u u m u u m m i u % < h.A.D.G.h.D b < S S 3 f ,.u.H.K.OX|.E.e.U P 7.z ",
"O ^.].I.w.i.i..X/.p.u.5.z q n M q M R f.Z.S.d.Y u u m m x u u m , , i i i u u , B W V.S.b.#.D < n n p 2 <.u.u.P.@X[.I.0.J.^.@X=.",
"9 q.^..X_.u.u..X).J.p.9.z S T b b J @.h.v.Y , : : u u i m u m m u u u u u u u & : ; b h.v.#.D 3 3 H H b ;.u.H.I.OX'.u.I..X_.s.j.",
"^ <.H.Y. XH.r.}.).H.i.9.z n | q m R F b u , N E u < u m m m m M , u m m u u u u S Y , , b R R D 2 H H h ;.u.p.U.OXP.u.`./.U.q.6.",
"= :.H.H.p.p.w.!.K.w.0.9.z n H h D R b 3 < < C.C.J < u m m u u m u u x i i i < n *.G.B : 3 J R R u S S 3 ;.0.0.i.^.r.u.p.p.J.w.n ",
"o N <.u.p.H.L.K.L.L.L.0.z n | b D W m 3 , Y Z.G.#., , u m m m M u u i D u u , p S.^.f.3 u m k.@.u H H 3 ;.0.r.u.p.K.L.L.L.J.:.2 ",
"5 ) 4.a.L.P.H.H.H.p.H.9.z n S q F l.D u , d.C.W m V.B O & , i m , u u & % , N.T B n.b.b < z l.%.3 Z S g ;.u.u.i.p.a.P.U.P.p.1.7 ",
"o # v ,.q.w.w.0.9.9.9.9.z q M q D m.D < : 2 W < V.>XC.m > % % % % % % * , &.:X;XM E n : < i #.@.3 n p 3 :.9.9.9.0.9.0.9.<.=., @ ",
"7 - > : <.u.u.u.u.9.w.9.z q M q D k.B , W B : m C.,X1X;XC.x.S v.D u 6.N.D.>X,XD.W : : W b u l.%.3 n p < ,.u.9.w.u.u.p.9., 6 6 > ",
"~ y ( t <.p.H.i.u.9.w.9.z p Z q D R m < D.F.M m N.^.1X4X4X3X1X5Xx.V.1X3X5X<X;XV.Y i Z.>XY u z.%.b n M 2 ,.0.9.u.H.J.P.w.9 5 ~ / ",
"$ @ ) k ,.H.U.L.P.u.u.9.g p n 3 F @.m 3 x.:X;XE *.G.>X<X4X6X7X7Xx.>X5X5X1X>XA.G.>.G.3XD.b u z.%.3 b n 2 ,.u.9.H.P.U.{.u.A 7 @ 6 ",
"# @ @ o ,.U.Y.U..Xa.p.w.z S | h D c.D 3 3 b.>X>X>X:X:X:X1X5X6X7Xx.;X3X3X>X;X;X>X>X,XD.S , u &.$.h G T b ,.H.0.H.U.).#Xa.N - @ @ ",
". 0 - O ,.Y.Q.Y.oXK.i.w.z n T b F c.F u 3 < n.:X:X;X;X:X:X<X2X5Xh.S.>X:X:X;X;X:X>XD.m : u m R J 3 T S 2 ;.i.0.P.U.).@Xt.; . - r ",
"* / 7 $ <.U.Q.E.OXa.w.9.z b T h D c.N.B u : m n.;X>X>X:X;X;X;X2Xf.C.:X;X;X>X>X:X;X$., 3 u v.d.D m T S 3 ;.u.0.U.E.Q.|.w.h 6 w ) ",
"# - : O <.J.W.W.'.i.w.9.z n T b D M.S.&.u & < v.:X,X,X<X>X>X:X2Xf.C.:X>X,X<X,X,XD.B # 3 m C.h.D u T S 3 ;.u.9.Y.Q.Q.W.w.{ r # - ",
"+   $ # <.H.E.Y.R.u.r.9.z q S q F c.V.C.m % d.n.^.,X<X2X3X4X<X3Xf.A.<X4X5X4X<X:XC.v.3 3 n.V.$.D 3 n n 3 ;.r.9.U.Y.E.W.e.n # o @ ",
"7 @ 4 7 <.H.E.U.E.u.w.9.z n H q D m.d.x.b % h.n.V.Z.Z.C.A.<X3X4Xf.F.4X>X^.S.Z.n.n.N.u % f.h.#.B 3 S S g ;.u.0.U.U.E.W.0.3 7 $ @ ",
"8 8 ( l <.H.E.E.Y.r.u.9.z n T b G c.b d.b J C.F.v.( 3 , < Y C.,X1.N.b.b e , m 1.S.S.f.3 d.B J R 3 H H 3 ,.u.9.L.E.W.W.0.| d 6 ( ",
"/ o.' { 7.H.E.XX/.0.p.0.z b Z 3 D x.m m < f.Z.>X:Xj.< X o 3 h.:XW f.D O # + H F.,XF.n.b B u %.$.g n n 2 <.H.0.J.E.'.E.r. .y [ o.",
"] ( k _ 7.H.W.#X/.0.H.0.z S | h D #.u m , f.A.:X,X>Xv.@.W V.S.>XW v.A.g.&.&.>X4X,XS.n.b u u l.%.h S T b ;.J.0.J.E.W.W.r.n ( ' l ",
"e $ 6 w <.H.E.#X).0.H.0.z n | b F %.u x i J n.A.;X;X;X;X;XA.<X4Xf.D.D.F.;X,X<X,XF.C.%.u m u k.%.u T S q ,.J.0.J.E.Q.W.r.9 y 4 4 ",
"o   o $ ,.H.E.|.U.0.u.9.z n H i F m.m i B * &.n.C.A.A.C.Z.;X2X>XY S.>XD.V.Z.A.Z.N.v.u x m u k.%.3 S S g ;.i.9.J.E.Q.W.r.2 +   o ",
"} 6 * ..8.J.E.P.p.9.e.9.x n T i D m.m m B u , u d.n.b.C.S.:Xh.h.n M ;XF.Z.b.n.v.m 3 : m B u F @.h S H g ;.u.9.i.H.R.W.0.f } 0 = ",
"` V k 3.8.I.R.J.s.e.u.9.x n T p D &.u m B m i , : Y b b.S.:Xd.f.N M ;XF.Z.D Y i , b m m m 3 D R u H H q <.u.0.i.p.Y.R.0.j O.V C ",
"7 6 0 1.7.J.J.p.u.9.r.9.x n H i m F u i m u D m & % & b.S.;XZ.S.H b.^.F.Z.m % % m B m m m < D @.3 S S 3 ;.u.9.u.i.a.L.0.-.A 6 6 ",
"O X # <.9.e.e.e.e.9.e.e.x n G 3 m J u m D m D D m , x.C.S.A.S.:X .*.S.S.Z.N.u u B M D D m 3 F #.3 M S g 5.w.9.w.0.e.u.9.9.4.:   ",
"  9 t ;.I._.E././.I.R._.L p S 3 m @.u u m D m D B , b.W D.Z.C.:X#.b.C.;XW n.m m B m m B u u %.%.h n S z K.'.).).).).).).E.r.h k ",
"l _ g.7./.XX+X+XXX.X.X}.I i s u m &.u u u m m u m 3 : & v.A.C.:XW v.A.Z.i : < m m u m m u u %.#.u n p 3 !. X.XoX.X.XoXoX{.r.A &.",
"0 P B.u.u.i.s.J.p.i.i.u.x q p u m %.u u x m D D D D u : h.:XS.:XW v.:XC.3 < m D D D m m u , D @.3 q p < <.u.i.i.i.i.i.i.w.9.{ k ",
"; L }._.U.U.L.I.U.U.U.I.v p G i D @.u u u u u u m m m 3 F.b.N.;XW h.h.;XY u m m m u u u u u D @.z S Z g i.Y.U.U.U.U.U.U.Y.`.<.h ",
"y.R. XOXOXXXOX#X#X#X#XXX=.n T b D z.u u u u u u u u u i N.D i m.B z u N.F u u u u u u u u , R R q T S b ^.XX#X#X#X#X#XXXXXOXW.Y.",
"U.'.i.K.U.Y.Q.'.E.R.W.Y.L n | h D m.m u u u F u u x m u u , D m.m m u < m m m u x B u u u < k.%.u T H g i.U.R.Q.E.E.W.Y.R.i.R.|.",
"].|.u.H.U.U.Y.Y.U.P.H.H.K n | b D m.m < F %.%.m u m m u u , m m.m D u , i m m u @.%.#.u , , l.%.3 T S h 0.H.P.U.I.I.I.P.P.e.Y.#X",
"}.|.u.p.L.L.P.L.p.i.i.u.N q S q B #.m @.%.@.m u u u u m u , F m.m D u u m u u u u F %.%.%.m k.$.3 M n 3 9.u.i.i.J.L.L.L.L.e.T.#X",
"]..XH.u.i.u.y.u.u.u.e.e.x 2 Z 3 m R %.%.@.u u u m u u #.F b @.m.m D m m #.m u m u u F %.$.R @.J 3 n p 3 5.u.u.u.u.u.u.u.u.u._.#X",
"}.&X.X|.|.|.|.|.{.|.|.[.I q n q m F #.@.D u & u m u u u #.z.#.m.m F &.z.i & u u u u i F J E R D 3 n p g U.|. X|. X|. X|.|. X$X&X",
"p.{..X.X.XXXXX.X.X.X{.].L q p 3 m D D @.@.D F @.@.@.@.@.@.F F m.m D @.@.@.@.@.M F @.@.@.F F F D 2 p i 3 P.{. X.X.XXX.X[.`.`. X/.",
":.L.E.Q.W.W.W.W.Y.Y.I.J.v 6 q < u B m m @.D @.@.@.@.@.@.D m m &.m i m m F @.@.F @.@.@.F D B M m 3 q q < u.P.U.U.W.W.W.E.E.U.U.0.",
"4.H.U.R.E.E.E.U.I.L.p.s.v f x z x x x x x x x z z x x x x x x c z z x x x z m c N z z g z z z x g z g f u.H.H.L.U.R.Y.E.E.U.P.0.",
";.J.I.J.L.L.J.J.J.p.u.y.;.5.9.9.e.0.5.9.9.5.9.9.9.9.e.9.9.9.9.9.9.9.9.9.9.9.9.9.9.9.9.9.9.9.9.9.0.9.9.;.w.i.i.H.L.H.L.H.H.P.P.0.",
";.r.i.r.w.w.9.r.e.9.e.9.9.e.J.U.R.P.J.L.y.e.u.i.s.J.U.P.s.J.J.J.s.J.J.s.J.J.J.J.H.i.9.u.H.J.J.H.H.i.u.9.9.w.w.w.0.0.0.0.0.u.u.0.",
"6.w.r.r.p.J.J.J.J.J.J.J.J.L.R.W.Q.E.R.R.E.y.u.J.R.W.'.Q.W.W.Q.E.E.W.W.Q.Q.W.'.R.U.K.i.H.P.R.W.E.Y.P.L.H.u.u.H.H.H.H.H.H.H.H.p.0.",
"<.i.K.U.'.[.[.[.[._.E.[.[.[.|.|.[.[.[.Q.Q.J.L.E.Q.+X$X$X#X$X$X X[.+X$X+X*X*X+X.X'./.p.L.U.'.|.|.'.'.'._.^.U.U.U.U.Y.U.Y.U.U.P.0.",
"6.H.Y.OX&X&X&X&X*X@XXX#X*X*X$X$X$X*X*XXXQ.J.Y.Q..X$X*X*X*X*X*X$X*X*X*X*X*X*X*X*X&X.XP.U.'.$X&X&X&X=X&X&X=XOXoXOX.X.X X XQ.Y.Y.0.",
"6.L.'.#X&X&X$X&X*X=X*X&X*X&X$X*X*X$X$X*X[.I.R.Q.|.|.|..X.X$X*X*X$X$X*X*X*X*X*X*X&X%XR.E. X.X.X.X#X*X-X&X=X=X=X=X&X%X%X%X#XOX Xi.",
"w.U.U./././._././._./././._./.E.[.R.R.R.Y.U.U.Y.Y.U.U.U.T.R.R.R.Q.R.R.(.R.].R.[.).).U.U.U.Y.U.U././.`.`./.).).).).).)./.).).).L."
};
