/* XPM */
static char *door_3_resized[] = {
/* columns rows colors chars-per-pixel */
"64 64 204 2 ",
"   c #060504",
".  c #0B0606",
"X  c #0C0907",
"o  c #0D0608",
"O  c #0D0A09",
"+  c #110807",
"@  c #120708",
"#  c #140A0B",
"$  c #1B0D0D",
"%  c #0E120C",
"&  c #14120F",
"*  c #1C100F",
"=  c #0E0F13",
"-  c #130D10",
";  c #1C0E10",
":  c #151311",
">  c #1B1414",
",  c #161915",
"<  c #1B1A17",
"1  c #18161C",
"2  c #1C1D1B",
"3  c #210D0E",
"4  c #20100F",
"5  c #220E11",
"6  c #290F15",
"7  c #241314",
"8  c #241717",
"9  c #2B1415",
"0  c #2E1916",
"q  c #2B1619",
"w  c #221D1B",
"e  c #2C1B1B",
"r  c #32161A",
"t  c #351619",
"y  c #341A1C",
"u  c #3A1C1D",
"i  c #1E221D",
"p  c #22221F",
"a  c #2A221F",
"s  c #36211C",
"d  c #3E211F",
"f  c #161921",
"g  c #1B1E22",
"h  c #231D23",
"j  c #2D1E23",
"k  c #341B23",
"l  c #3B1D22",
"z  c #1C2125",
"x  c #1D242A",
"c  c #1F282F",
"v  c #1F2A34",
"b  c #222521",
"n  c #2B2522",
"m  c #252A24",
"M  c #2D2A25",
"N  c #22262C",
"B  c #2B2D2A",
"V  c #342221",
"C  c #3C2222",
"Z  c #312A27",
"A  c #342D2A",
"S  c #3A292A",
"D  c #283027",
"F  c #2C322B",
"G  c #35322D",
"H  c #39312E",
"J  c #31382F",
"K  c #212B34",
"L  c #252A35",
"P  c #232D3A",
"I  c #362C38",
"U  c #24313E",
"Y  c #333532",
"T  c #3C3532",
"R  c #343C32",
"E  c #36383B",
"W  c #3C3D3B",
"Q  c #441A1D",
"!  c #46231F",
"~  c #441E25",
"^  c #451F28",
"/  c #432324",
"(  c #4A2424",
")  c #492925",
"_  c #43252B",
"`  c #4B252B",
"'  c #452B2B",
"]  c #4C2C2B",
"[  c #53232B",
"{  c #532C2B",
"}  c #5B2A2E",
"|  c #47322D",
" . c #56312D",
".. c #492B32",
"X. c #572B33",
"o. c #473433",
"O. c #543134",
"+. c #5C3434",
"@. c #583839",
"#. c #652D34",
"$. c #653938",
"%. c #793937",
"&. c #374035",
"*. c #384336",
"=. c #3C443A",
"-. c #3D4A3B",
";. c #414C3E",
":. c #42503F",
">. c #71433A",
",. c #233444",
"<. c #2B3443",
"1. c #26394C",
"2. c #2E3B4C",
"3. c #363D4A",
"4. c #273E54",
"5. c #293F53",
"6. c #313D51",
"7. c #473847",
"8. c #513E49",
"9. c #783B46",
"0. c #2A4157",
"q. c #2B455C",
"w. c #2C485F",
"e. c #32465C",
"r. c #2C4760",
"t. c #2E4A64",
"y. c #2F4E69",
"u. c #314C65",
"i. c #314F6A",
"p. c #2F506D",
"a. c #31516E",
"s. c #325573",
"d. c #345877",
"f. c #395875",
"g. c #345B7B",
"h. c #444544",
"j. c #484947",
"k. c #4B4C4B",
"l. c #544A4B",
"z. c #455443",
"x. c #495947",
"c. c #4D514C",
"v. c #4C5C49",
"b. c #50524F",
"n. c #474351",
"m. c #545454",
"M. c #585857",
"N. c #5B5B5B",
"B. c #6C4441",
"V. c #4E604C",
"C. c #474E60",
"Z. c #645C69",
"A. c #636363",
"S. c #66606B",
"D. c #6B6B6B",
"F. c #727272",
"G. c #757874",
"H. c #7B7B7B",
"J. c #843D40",
"K. c #355F81",
"L. c #366184",
"P. c #376489",
"I. c #396589",
"U. c #38668A",
"Y. c #39688E",
"T. c #3B6C94",
"R. c #3B6F98",
"E. c #3E7097",
"W. c #3C729C",
"Q. c #3D76A2",
"!. c #3E79A6",
"~. c #3E7BA9",
"^. c #416F91",
"/. c #417195",
"(. c #42769E",
"). c #46789D",
"_. c #4177A1",
"`. c #437AA4",
"'. c #487EA5",
"]. c #427DAA",
"[. c #4480AE",
"{. c #4982AC",
"}. c #4684B2",
"|. c #4885B2",
" X c #4C89B6",
".X c #4D8CB9",
"XX c #528CB6",
"oX c #518EBA",
"OX c #4F90BE",
"+X c #5291BE",
"@X c #5394C2",
"#X c #5799C7",
"$X c #5899C7",
"%X c #599CCA",
"&X c #5FA1CC",
"*X c #61A2CD",
"=X c #63A4D0",
"-X c #848484",
";X c #8B8B8B",
":X c #949494",
">X c #9C9C9C",
",X c #A0A0A0",
"<X c #AAAAAA",
"1X c #C2C2C2",
/* pixels */
"O # $ # * d e + X $ s s t * . / ~ # r ! s * l 7 . O w e = 4.4.4.4.0.4.j H < - o 7 y u q O # X.q $ t ) 7 9 u #   X 0 * . o . + $ ",
"8 9 t 9 t 7 & + X . u Q [ s o $ $ o # o o @ 7 g 1 1.4.r.y.T.T.p.T.W.R.a.u.q.1.1 ; ( Q O.8 @ ; # @ @ o o $ 8 & + # O X + 8 7 9 q ",
"l ' / l Q t . o . . # # q  .7 9 * + # X 7 g x t.s.s.g.W.Q.!.W.s.~.~.~.Q.W.K.s.s.p.P g _ ] $ 0 # # O $ 4 ; # . # u y 0 7 t ^ S / ",
"j G @.# # # o 9 9 # . . $ # o 5 { 0 q $ U e.K.Q.!.~.~.~. X.X|.d..X.X.X X~.!.~.!.!.K.t.v # O u ( 0 8 # / u t $ 5 9 9 [ l y l a l.",
". $ q o # X # ~ { s $ o 0 9 # $ +.O.2.0.t.U.!.{..X.X.X.X].'..Xf./.`.`.`..X.X.X.X].].Y.t.5.,.n $.u 8 3 0 e : 8 d 5 . 7 6 O o o q ",
"# $ . # k ; O ` @. ./ 7 ~ { y n 6.i.a.Y.p.`..X X_.W./.E.I.Y.T.a.i.K.U.U.R.(./._. X.X].f.'.d.u.e.g . 3 # . o # + o # $ . # # ; X ",
"t l 7 8 X.r 5 %.>.$. .s } 8.I f.g.W.!.[.Y.).R.T.T.Y.L.L.d.d.d.g.y.s.d.d.K.K.Y.Y.T./.).^.oX].W.g.a.K f - 4 7 4 # @ y r @ u 6 ~ 7 ",
"#.` S / 9.u 9 } ) y $ 7 8.u.K.Q.~.]. X{.{.g.g.g.K.g.g.s.d.f.s.s.t.a.d.d.g.s.K.K.K.d.g.`.{. X[.~.!.L.r.<.V / t u 7 l 6 @ l ^ #.n ",
"X.7 # ) $.$ o o . . : ,.t.P.~.~..X.X'.Y.U.g.a.i.s.s.s.s.s.y.t.q.q.t.u.s.s.s.s.a.p.a.g.I.I._..X.X].~.Y.i.2.h y / $ . # X o ~ l # ",
"o # . o X $ > $ 8 a 5.a.R.!.}..X_./.I.g.g.s.s.a.t.s.0.5.5.1.z g g g 1.5.5.0.a.y.a.a.s.g.g.P.E.(. X}.~.R.s.4.1 # $ o # $ o . # X ",
"e 9 $ 3 0 Q l / ) 7.f.W.~.}.}.R.P.g.d.s.p.1.,.,.,.,.b 2 2 2 w a j w 2 2 2 z U ,.,.,.1.y.d.d.L.P.R.|. X~.W.g.P y y # t 0 $ 9 e $ ",
"] C C ( +.} #.8.7.i.W.~. X{.T.U.g.s.s.y.P i p w w w n n n n Z A A Z n n n n w p w p 2 P t.a.s.d.U.T.]. X~.Q.i.3.a ) { / / ] C ! ",
"` ( ..$.$.$.$.7.u./.[. X_.Y.g.g.a.w.P x p n Z Z T A n A H o.T H T T T H S n S T A A M w N K q.s.d.g.Y._. X`.).y.3.$.` ] +.[ / ) ",
"9 0 ^ [ ( { 7.u.p.s.'./.L.L.d.s.0.N a n S H H H T A n A w < < < < < < 2 A a G H H H G A n a N 2.a.d.L.L.R.R.f.y.t.I e V s 9 r l ",
"# 3 e 9 s E d.W.!.I.a.P.U.g.a.,.h Z H Z M Z Z Z < : : > : & & & $ & & & , : > > Z A A A M H Z b ,.a.d.I.I.i.U.Q.Q.s.L 7 O o $ 9 ",
"  O o @ > q.W.~. X{.K.s.g.s.U w n A H w < , > : : & & & & : & & : & : : & & & & & > p < p H A a w P a.g.d.g.`. X~.Q.t.n e X . @ ",
"> 7 8 - ,.P.R.].oXR.g.a.t.K w M H H a D R N.;.< & & & & & & > & & : & & & & & , *.k.A.B , p H G M w K q.a.g.^.+X}.Q.Y.C.@.> 7 8 ",
"( J.$.X.q.R.R.oX_.Y.d.s.4.2 n H H p D k.G.G.M , i i , , & & & : : & & & , 2 2 , p k.F.b.;.B w A H Z 2 1.a.d.I./.@X].Q.t.n 9 %.>.",
"/ S.n.7.e.I.Y.oXE.L.s.q.g 2 Z H 2 D =.F.F.M.i 2 i i i i > & & & : & , & , p m i , 2 M.H.H.=.i < T A 2 2 0.d.g.I.+X].Q.y.P L Z.B.",
"g XX'.I.i.d.g.oXE.g.s.q.g w n Z < G c.A.h.G z m m i i i & & : : & : & & : p m m < , Y D.F.c.B < n n w 2 0.s.g.T.@X~.P.y.K.`.XXl.",
"= s.(. XW.a.d.oXE.P.f.q.g A T b B *.k.B : , i z m i i i : & : : : & & & % i z i i : , B c.m.F 2 2 T H g 0.f.P.R.@X_.a.R..X_.f._ ",
"e e.U.W.{.d.d.+XE.d.s.q.g Z T w J F i , B Y i i m D m i , : & & & > : & , m m i 2 , Y 1 2 m J B 2 T A 2 0.s.d.R.oXK.s.].(.Y.r.; ",
"j q.K.g.g.f.i.^.K.a.i.q.z Z H 2 J 2 2 z F.N.i b p i i 2 : $ & : & : : & : i m z , B c.2 : i R R 2 A Z g 4.y.p.g.^.i.g.K.g.K.r.8 ",
"8 N q.s.g.P.P.P.P.P.L.r.z Z T p J b b W G.G.m , 2 m i 2 , : : : : : & : : m m < , B F.h.2 p ;.R w T A g 0.y.s.s.K.K.P.P.K.K.,.8 ",
"o - q.K.U.Y.K.K.K.K.g.q.z Z A 2 ;.m m c.A.=.A.z % % i i : & : & & > : : : : % 2 A.B F h.2 b x.&.w Z Z f 4.s.d.d.g.K.Y.Y.Y.a.1 o ",
"; > 2.5.r.i.y.t.t.r.t.q.g w M h x.m 2 p W i -XN.n 2 % % & & & : & $ & : % % , b ;XH.2 , : i -.R 2 Z w 2 5.t.r.t.u.u.u.t.5.<.> 6 ",
"e k ~ l 5.s.s.s.s.t.s.q.g w n w -.m , , % Y ;X<XH.M.F B > $ & & : : & : , B j.D.:XD.J 2 W z x.&.2 M j 2 4.s.t.s.s.g.g.r.Z k k r ",
"/ o.| h 5.K.L.d.s.t.a.q.g n Z 2 F p 2 N.n F H.<X>XA.N.M.;.< & & : & : & 2 b.A.:X-XN.W H.;XB x.&.2 Z n g 5.s.u.g.K.K.U.t.k ` A @.",
"# e ] - 0.I.Y.U.I.i.f.q.g n n 2 R z m -XH.R F.>X>X;XA.N.l.8 & & & & & & b M.;X:XF.H.j.<XA.z v.*.2 n n 2 4.d.i.K.Y./.'.i.h ; ; o.",
"o o . O 0.W.R.R. Xs.g.u.g G T b :.D p A.:X:X-X-X{.-XA.m.F * * & & & & , m M.-X;X-X:X:XD.n 2 z.&.h T H g 4.K.p.K.Y.].@Xi.= o @ o ",
"6 q $ > 0.W.!.R.XXs.d.q.g n T b x.D i i D.:X-X-XA.A.N.m.M , & & * , & * s M.Z.{.-X;X-Xm , i R F b T M 2 4.K.p.Y.T.].oXi.k 3 k - ",
"[ ~ V j e.W.!.!.oXs.a.q.z n T b V.N.p , B A.:X:XA.B.N.M.F * & & & & * , Z N.B.-X;X;XH.z i i Y B m T n 2 4.s.y.W.Q.~.].y.` u [ e ",
"9.l w ] u.Y.Q.`.`.a.a.q.g M T h v.G.Y % i N.>X>X;XD.N.N.j.2 & & & & & < j.N.;X:X>X:XD.2 2 m R D b T Z 2 0.s.y.Q.!.!.Q.r.f [ X.8 ",
"; @ . 8 0.U.Q.R.W.y.s.q.g n M w v.A.A.b j.A.:X,X,X:XF.N.M.2 $ : & & & < m.F.>X<X,X;XN., b N.=.m 2 Z n f 0.a.y.W.R.!.Q.t.= - - o ",
"; > @ # 5.I.Q.R.W.p.a.q.z Z A b v.h.b.b M.N.A.D.D.F.-XA.m.2 & : & * , , M.;XF.H.D.N.b., , c.*.B 2 A Z 2 0.a.y.R.T.!.Q.t.: $ 5 # ",
"/ y 0 y e.I.!.Q.T.y.s.q.g Z T b x.b j.j.D.H.Y < 1 M j.M.m.w & & & & & < l.;.2 < M j.G.h.2 k.*.Y p T Z g 0.s.y.T.Q.!.Q.r.j C y r ",
"` ( ] @.e.I.`..XR.y.d.t.z n n i z.i Y M.F.;Xj.: X , B m.m.w & & & : & < j.2 O % W -X>XN.2 J x.&.2 n n 2 0.K.y.U.!.~.Q.t.O.} ` ( ",
"l C ..X.e.P.~.@XR.y.L.q.z H T w F 2 D M.F.;X;Xk.E F W M.m.w & & : - : < m.m.*.h.>X1X:XM.2 D V.&.p T T 2 q.K.y.U.!.~.W.y.o.u l / ",
"$ 6 l l e.L.].@XR.y.K.t.g Z T b *.i m W Z.F.-X-XD.j.M.M.E , & > & : $ , E M.H.-X,X>XF.R i D V.*.w T A g q.K.y.U.!.!.Q.t.< $ 3 r ",
". $ ; > 5.P.`.].Y.y.s.q.z Z H i x.i m , k.N.D.D.b.M.M.b.< $ & & & : > - < b.N.A.D.D.M.i m J v.&.2 A A g 0.d.y.U.Q.~.W.y.: . @ > ",
".   . X 0.Y.Q.L.g.t.s.q.z Z H a z.z p i i i v.M.S.M.A j.n : : : > & & : b m.D.A.N.k.b , m F *.R 2 T A g 0.a.u.g.K.!.Q.u.@.& . . ",
"C #.] l 0.R.W.g.g.y.s.q.z Z T p -.i m D i i E b A.M.Y M.b.2 & - & & & < k.N.D.D.h.< , b m B R R p T A 2 0.d.y.g.K.W.R.u.S 8 } +.",
") %.>.e.t.L.L.d.s.t.s.q.z Z H i J i p i D D & , A.A.N.N.m.2 - : : & & < m.A.F.A.2 % m m m m &.Y 2 G A 2 0.s.t.a.s.K.P.t.,.q %.>.",
"9 X.@.r.t.a.p.y.y.w.p.y.z M Z i F i m D D D , m.D.A.N.N.m.w : : : : ; < m.D.F.A.2 i B D D D &.J 2 Z M 2 y.a.t.a.y.p.p.y.t.2...@.",
"# y O.e.R._._._.W.I.(.W.N a Z < &.i i D m m i M.J c.N.N.m.w & & & : : < m.D.-XF % m D D m m x.&.2 Z M z T.]._._._._.Q.`.E.r.j ` ",
"$ * q e.'..X@X.X X XXX{.K p Z i -.i i i m p i & , N.N.N.m.w & & : & $ < 7.N.A., , m m p m m z.R w M w z ).{. X X X X X X].u.8 3 ",
"u E a.a.s.g.K.L.d.d.d.s.z p a i *.i i m D D m i i -XD.M.Y < & , : & : & i b.m., m D D m m m &.R 2 n w g q.a.f.d.d.d.s.d.y.e.{ 3 ",
"n 2.+XW.T.T.L.T.T.T.E.I.N a F i F i i i p m x p 2 W A.M.< & & & & : & : % Y -Xm i D m i i i R J w A n b L.T.R.T.T.R.T.R.W._.I V ",
"R.Q. XoX.XoX.X@X@X@X@X|.P Z T h -.i i i i i i i i % m -.< & & & : : : : % i D.D i i i i i p *.R h T A x '.oX@XOX@XOX@XoX@X XW.E.",
"}.~.s.U.R.R.].].Q.W.Q.R.c Z T b V.i i D D i i i i i i i & & * & : - : : : , i i x i p i 2 m x.&.i T A z K.R.Q.~.Q.Q.W.R.R.s.Q.|.",
"#X].i.P.T.R.W.W.T.U.K.g.x Z T b :.i i -.*.m m m i , i i , & , * : : : : % , i i m p &.&., i v.&.h T S i s.L.Y.T.T.Y.Y.Y.P.a.!.$X",
"$X].i.K.P.P.P.K.g.s.s.p.z n Z w *.i *.&.i i i i i , i i * & & & : : : : % , i i i i p -.:.:.V.&.2 Z b 2 t.s.d.g.L.I.P.P.K.p.Q.$X",
"$X}.d.s.s.s.g.s.p.s.a.y.z w M 2 &.-.-.i i p i x *.D i i , & & & : - : : & , i i i i m &.-.-.*.D 2 M p g t.s.a.s.s.s.s.s.s.d.].$X",
"%X$X X}.}.}.}.].|.|.|.].v w Z 2 F &.&., , i i i i -.p i & & & & & : : & & i i , i m i D R R R B < Z w z (.|.|.}.}.}.}. X|. X$X%X",
"/.|. X.X.X.X X.X.X X{.(.N w a > D J &.D &.&.J i F p i i , & & & > & & : , i i i i p &.&.R Y F B < n w g /.[. X X X.X.X'.].'. XR.",
"r.Y.Q.!.!.~.~.Q.R.T.I.L.x < w 1 p m D D &.&.J i i i , , & & & & $ & & & % * % , % i &.&.F D B m < 2 w 2 g.Y.T.R.Q.!.Q.Q.Q.T.I.t.",
"t.L.T.Q.Q.Q.W.R.Y.P.g.g.c z z z z z z x x x z z f z z z f i z f f z z 2 z 2 f f f g g x x g x x g g g g d.K.K.Y.R.Q.R.Q.Q.Y.P.t.",
"t.L.U.L.L.P.L.L.L.d.d.p.1.w.t.p.p.t.t.t.t.q.t.t.t.t.y.t.t.t.t.t.w.t.t.t.t.t.t.y.t.t.r.t.t.u.t.t.y.y.t.1.a.d.g.K.K.K.K.P.U.Y.U.t.",
"t.p.s.y.y.y.y.y.y.t.p.y.t.s.L.R.W.P.L.L.g.y.s.d.L.P.E.P.L.L.L.L.L.L.L.L.L.L.L.L.K.d.u.d.K.K.L.K.K.g.s.t.y.i.u.i.y.y.y.y.y.s.s.r.",
"r.p.s.s.K.L.L.L.L.L.L.L.L.P.Q.!.~.Q.Q.Q.W.g.d.P.W.!.].~.!.~.!.!.Q.!.!._.!.!.~.W.R.K.s.K.Y.Q.Q.Q.Y.U.K.K.s.s.K.K.K.K.K.K.K.K.g.t.",
"t.s.I.E.{.[.[.[.[.!.!.[.[.}.}.}.[.}.}.~.!.g.Y.Q.].@X$X$X#X#X@X}.}.@X#X#X#X$X#X{.].T.g.U.R.].|.].].].].]./.T.T.T.R.Y.T.T.T.Y.U.t.",
"t.L.W.@X%X%X$X%X&X+X X$X&X%X%X#X%X%X$X X!.L.Q.~. X$X%X&X&X%X&X#X%X&X%X&X*X=X=X&X%X|.I./. X%X%X%X%X=X%X%X&XoXXXoX X X X|.!.R.Y.y.",
"t.T.].#X%X%X%X%X*X*X%X%X&X%X$X%X%X%X%X%X~.I.Q.~.}.|.|.|. X#X%X$X%X#X&X$X&X*X&X&X%X@XR.!. X}. X X$X*X=X%X*X*X*X&X%X#X%X$XoX.X|.i.",
"K.T.R.(._.(.(.(.(.(.(._.(.(.(.Q._.(.(.W.R.Y.T.R.R.T.R.R.E.(.(.(.(.!.(.(.(.(.`.(._._.T.Y.R.R.T.T.(._.'._.(._._._._._._._._.`._.K."
};
