/* XPM */
static char *door_2_resized[] = {
/* columns rows colors chars-per-pixel */
"64 64 208 2 ",
"   c #070506",
".  c #0C0606",
"X  c #0C0907",
"o  c #0D0708",
"O  c #0D0A09",
"+  c #110707",
"@  c #110708",
"#  c #140B0B",
"$  c #1B0D0D",
"%  c #0D110C",
"&  c #13110F",
"*  c #1C100E",
"=  c #0E0D11",
"-  c #140D11",
";  c #1C0E11",
":  c #141412",
">  c #1C1213",
",  c #161915",
"<  c #191A17",
"1  c #171318",
"2  c #1C1D1B",
"3  c #220E0F",
"4  c #22130F",
"5  c #220E11",
"6  c #241313",
"7  c #2C1516",
"8  c #2C151A",
"9  c #261918",
"0  c #211E1C",
"q  c #2D1A19",
"w  c #33161B",
"e  c #351819",
"r  c #341B1B",
"t  c #3B1C1D",
"y  c #1E211D",
"u  c #22221E",
"i  c #28221F",
"p  c #38201D",
"a  c #151B22",
"s  c #1C1E21",
"d  c #2A1D24",
"f  c #371721",
"g  c #341D22",
"h  c #3C1C22",
"j  c #1C2126",
"k  c #1D2429",
"l  c #1E2A34",
"z  c #1E303E",
"x  c #222621",
"c  c #2B2623",
"v  c #252A24",
"b  c #2C2A26",
"n  c #24272B",
"m  c #2B2D2A",
"M  c #352423",
"N  c #3D2323",
"B  c #302A26",
"V  c #392428",
"C  c #342D2A",
"Z  c #2C322B",
"A  c #2F392E",
"S  c #34332D",
"D  c #39312E",
"F  c #31382F",
"G  c #212C35",
"H  c #262D39",
"J  c #322D3A",
"K  c #24313D",
"L  c #28303E",
"P  c #343533",
"I  c #3C3432",
"U  c #343C32",
"Y  c #383C37",
"T  c #34303C",
"R  c #3B3D3B",
"E  c #451A1F",
"W  c #45261E",
"Q  c #431D24",
"!  c #442424",
"~  c #4B2323",
"^  c #482A26",
"/  c #452429",
"(  c #4B252B",
")  c #432B2A",
"_  c #4B2B2B",
"`  c #51262C",
"'  c #55282A",
"]  c #493129",
"[  c #5B332C",
"{  c #4B2A33",
"}  c #582A33",
"|  c #463535",
" . c #583436",
".. c #632C33",
"X. c #67383A",
"o. c #364134",
"O. c #394237",
"+. c #3B4439",
"@. c #3E4A3C",
"#. c #444A3E",
"$. c #724137",
"%. c #1E3040",
"&. c #243444",
"*. c #2A3747",
"=. c #263A4D",
"-. c #363644",
";. c #273D52",
":. c #293F53",
">. c #323E51",
",. c #453741",
"<. c #713A44",
"1. c #2A4156",
"2. c #2C465D",
"3. c #2C485F",
"4. c #324256",
"5. c #34445B",
"6. c #39475B",
"7. c #2C4760",
"8. c #2E4A64",
"9. c #2F4E69",
"0. c #324A64",
"q. c #304F6A",
"w. c #2F506D",
"e. c #31516D",
"r. c #2F5472",
"t. c #325573",
"y. c #345877",
"u. c #345B7B",
"i. c #395F7E",
"p. c #444543",
"a. c #454A43",
"s. c #4B4C4B",
"d. c #455342",
"f. c #495946",
"g. c #4C524B",
"h. c #4D5E4A",
"j. c #50554F",
"k. c #484754",
"l. c #535452",
"z. c #575857",
"x. c #5C5C5C",
"c. c #4F604C",
"v. c #51634F",
"b. c #586257",
"n. c #60645F",
"m. c #484B63",
"M. c #41586F",
"N. c #646464",
"B. c #676867",
"V. c #6C6C6C",
"C. c #6F706E",
"Z. c #737373",
"A. c #757974",
"S. c #7B7C7B",
"D. c #804039",
"F. c #834745",
"G. c #355F81",
"H. c #366184",
"J. c #396384",
"K. c #376489",
"L. c #38668B",
"P. c #3A698E",
"I. c #3B6C94",
"U. c #3A6F98",
"Y. c #3E7097",
"T. c #3C729B",
"R. c #3D76A2",
"E. c #3E79A6",
"W. c #3E7AA8",
"Q. c #406C8D",
"!. c #416E90",
"~. c #437396",
"^. c #42769E",
"/. c #45789E",
"(. c #4177A0",
"). c #437AA3",
"_. c #487EA5",
"`. c #427EAB",
"'. c #4A80A7",
"]. c #4481AE",
"[. c #4983AD",
"{. c #4583B1",
"}. c #4885B2",
"|. c #4C89B6",
" X c #4D8CBA",
".X c #518CB6",
"XX c #518EBA",
"oX c #4F90BE",
"OX c #5291BE",
"+X c #5394C2",
"@X c #5699C7",
"#X c #579AC8",
"$X c #599CCA",
"%X c #5FA1CC",
"&X c #61A2CD",
"*X c #63A4D0",
"=X c #858585",
"-X c #878887",
";X c #8B8B8B",
":X c #939393",
">X c #9C9C9C",
",X c #A4A4A4",
"<X c #ABABAB",
"1X c #B5B5B5",
"2X c #BDBDBD",
"3X c #C4C4C4",
"4X c #CBCBCB",
"5X c #D0D0D0",
/* pixels */
". o o + $ @ $ 7 N * + + 6 t t 7 # # ` 8 ; t ! 4 7 r - O : >.2.;.:.2.;.a - ; g M # o @ q r t 6 X 8 ` - 8 t W * r q o   $ 7 X o o ",
"o > 6 7 7 w 7 w > # X o # W E { 6 + 5 @ @ o o = 0 >.:.7.8.I.U.q.P.U.U.r.0.:.1.n 1   . 6 ~ Q ) # # ; + @ @ o X 6 6 O # # O X # 7 ",
"6 7 / N ^ / w ~ 3 . X o X # # ^ _ $ 7 # # a n 8.r.y.u.U.R.W.E.e.E.`.W.E.R.u.y.r.9.l a - $ $ [ p $ 7 + $ X $ * $ . o $ t r 7 6 h ",
"/ g h 9 p.N @ - + $ 7 3 + . + # + X h ^ H 5.G.R.W.W.W.W.|. X}.t.|. X X|.W.W.W.W.E.K.8.G # # @ o # ( t 8 $ 6 ^ t 6 5 5 w r ` r r ",
"8 o @ + 5 5 o @ o 5 _ ^ 7 + # t > 1 *.5.7.H.`.`.|. X XXX_._.XXy.!.).).). X X X X`.`.I.0.;.*.d ; # ! [ q 6 6 q 9 & q g # . w # O ",
"  # @ 5 o o ; f o 6  . .' p 6 _ >.8.t.L.t.^. X.X).T.T.T.P.H.I.e.q.H.J.L.U.^.^.^.|.XX`.t._.G.9.:.m $ # o o 5 . . X # @ @ $ + @ - ",
"@ w 7 Q 8 9 r ..; t D.$.X.| J q.u.U.).{.P./.U.I.I.L.H.G.u.y.y.u.8.t.y.y.G.H.K.P.I.U./.Q.OX`.R.G.t.l a # $ . $ * q # # # Q ; 5 t ",
"o f f ..M N  .X.6 t } ) -.7.u.T.W.`.}.[._.G.y.u.G.G.u.y.y.y.y.t.8.e.y.y.y.y.G.u.G.y.y.).[.|.`.W.E.H.8.*.g 6 ! r ( 7 t 6 h @ 7 f ",
"o   8 ( & * X._ o o = %.8.K.E.W. X X_.I.H.G.e.q.e.y.y.t.t.8.3.3.2.2.8.t.y.t.y.t.q.e.y.L.P.(. XXX`.W.I.e.;.V W 3 6 p t . X * . X ",
"* @ . + +   X o * < *.r.I.E.`.|.(.T.L.u.y.y.t.t.9.e.1.1.1.1.k y s j &.:.1.1.q.q.q.t.t.y.y.H.U.~.}.{.W.U.y.1.: o o # # $ o # # . ",
"e 3 3 q 4 $ 5 f ! J t.U.`.}.|.U.H.G.y.y.q.=.&.&.&.&.x 2 2 2 i i c 0 2 2 2 2 K &.&.&.&.q.y.y.G.H.U.[.}.`.R.u.L $ @ > p 6 $ t 4 3 ",
"! N ` ^ p ! ( <.| 0.U.W.|.`.U.P.y.y.y.9.K s i 2 u 0 i c c c i C C B c B c c 2 i 0 i 2 G 2.t.y.y.K.I.`.|.W.R.e.L g ` _ r [ ~ N ~ ",
"{  .' / ( }  .,.5.~.`.|.).P.G.u.y.7.K k i i C B D C c C D I I I D I I D D c B I C B b 0 n G :.t.y.u.P.^.|.`./.q.>. .M [ [ ( { [ ",
"r M 7 7 t ( | q.e.t.).^.G.K.y.t.1.n c c B D D D D D i C i < < 4 9 > < 9 B i C D D D D C c c n =.e.y.H.G.I.U.y.e.e.G t ~ 7 w N q ",
"* X + # 7 T t.T.R.P.e.H.L.u.q.=.x c D B c C C B x u 2 i u : & & : & & : > : u i B C B B c D B x K q.y.L.L.e.H.R.R.u.-.- + * # o ",
"* p # . : 1.T.W.|.[.H.y.u.t.z d i C D i < u v P Y F A x u , , : & : : & : F o.a.Z v < > 0 D D c 0 G q.u.y.u.).|.W.E.q.2 . o p 9 ",
" .F.q > &.H.U.E.OX~.u.t.8.G d c C D i , < Y N.b.f.k y % : , y : , % : % , u i g.V.a.b < , 0 C D b 0 n 2.e.y.I.XX{.E.I.5.B M F._ ",
"} ' $ ..m.I.U. X(.P.y.t.;.s c C C u < b p.C.S.l.y , y y y y y , & : : y y , : 4.A.A.j.a.Z 2 2 C D B 2 &.e.y.L.!.XX`.E.9.V Q ..7 ",
"` k.K ,.5.H.L. XT.H.y.7.k < b I 0 2 Z o.Z.A.x.v y y y y y y y : , & % y u u 2 2 l.C.S.S.a.Z y < C D 2 a :.t.H.H.OX{.R.9.H J m.2 ",
"d .X`.L.w.y.u..X^.y.y.2.s 0 c B < Z Y s.C.a.S j y v v v y y y : : % y y u v y , m R B.A.l.Y Z < c B 0 2 :.t.y.P.+X`.L.9.H./.+Xz ",
"9 e.^.|.^.e.y. X^.H.y.2.j C I u x U O.h.l.d : , y y y y u y u : & , y u u y y , : & n s.l.+.Z 2 9 D D 2 :.y.G.I.OX).t.I.|.(.i.a ",
"_ 1.K.T.[.i.t..XT.u.y.2.j b I d b U A y 2 m P 2 y y v v v v u : & , u v v y y , P P , < v A U Z < I D s :.t.y.I.OXH.t.`.^.I.9.V ",
"C 2.u.u.u.y.q.Q.H.t.q.2.j c D 0 A U y y u A.N.P , y v v u y y : & , y y x v n m z.A.n : y A o.U s C C 2 :.q.q.u.~.q.y.u.G.G.8.{ ",
"# k 1.y.u.H.K.K.L.H.H.8.j b I x A Y v y y F.~.P , , y v m v u : & , x v v 2 , v Z.S.p.< y m #.O.y I C s :.q.q.y.u.H.K.K.H.G.%.: ",
"  o =.G.K.P.G.G.G.G.G.7.j c C 0 A f.m 2 < z.R v N.v O % , y y : & , v 2 % % % y m N.l.y 2 j f.O.2 B B 2 :.r.y.y.y.G.P.P.P.r.=   ",
". ; &.:.7.9.9.8.8.8.8.2.j 0 B 2 A h.Z 2 : R y V.>Xx.j , % O % % & & % O , 2 s.C.v R d & y y +.o.x c d 2 ;.8.8.8.q.8.q.8.;.&.1 # ",
"; 6 f M 5.r.t.y.t.8.q.7.s 0 B 2 A d.v , R 2 m B.:X<X=XB.s.a.p.0 & : x +.n.S.:XC.P : : R y u h.+.2 c d 2 :.r.8.r.y.y.y.7.d $ ; g ",
"r r Q V >.G.G.y.t.8.r.7.j c B 0 A U x 2 A.S m N.=X<X4X2X2X<X;Xc & , x.-X1X3X,XN.P v Z.:Xv y h.O.2 B c 2 :.e.8.y.G.H.P.7.V Q r t ",
"/ ; 5 - ;.K.P.L.P.q.t.7.s c c 2 A Y u , l.A.Y z.S.:X,X4X5X4X;Xn : < C.:X2X<X:X-X+.;X2XV.y u f.+.2 i c 2 :.t.9.G.P.!.[.q.2 ( 6 6 ",
"o o o # :.U.U.I..Xy.u.8.j C I 2 U f.m y j S.:X:X;X;X;X1X4X2X;Xc # 1 Z.;X<X:X;X:X:X>XZ.v , y d.O.d P I s :.G.9.G.P._.OXe.1 @ o o ",
"@ 5 5 w >.U.W.U..Xu.y.8.s c I j F c.Z 2 y N.;X;X-X-X-X;X,X:XS.v : , Z.-X-X-X-X;X:XA.v , y v U P s I B 2 :.y.9.P.I.`.+Xt.g $ $ 8 ",
"o Q e } 0.U.W.R.XXy.q.0.k c I d F v.b.m y Z n.=X:X:X;X-X-X;X=Xc - < C.-X-X-X:X;XS.Y , y j l.+.b m I B 2 :.r.9.U.R.W.`.t.{ # 7 Q ",
"o - f <.4.K.E.E.).t.e.7.j c I i U v.A.P 2 2 z.:X>X>X,X:X:X=X=Xc : < C.;X:X>X,X>XZ.c & y v V.a.m u I C 2 :.r.9.U.W.W.R.9.s # - - ",
"# o @ > :.H.R.U.R.t.e.7.j i B 2 U v.N.B.x p.x.=X>X,X1X2X3X,X=Xn - , Z.,X3X4X2X:XN.g.< y x.n.+.Z 2 b c 2 :.r.9.U.U.R.R.8.- # o . ",
"7 # # 6 :.K.R.I.T.r.e.7.j c D 0 A h.p.s.x l.x.x.B.V.V.C.,X1X:Xb & , A.2X:X'.V.x.x.x.2 & s.s.U Z 2 C B s :.t.9.U.I.R.R.9.: 7 ; @ ",
"t q N V >.H.R.E.I.9.t.7.j b I u U h.v p.0 x.S.l.m < 1 1 R V.;Xm & < C.x.p , 2 ,.A.Z.4., p.b F F d I C 2 :.t.9.P.R.E.R.9.) E w e ",
"( { } _ 5.H.W. XU.9.u.8.j c c 2 P f.x m < b.>X-Xs.:   % s l.-XC : < V.D # X % A.>XA.z.2 v y #.O.2 c c 2 :.G.9.H.E.W.E.9. .( { ..",
"/ _ p h >.G.E.+X^.q.G.8.j C | j A U y x , x.;X>X:Xs.Y R N.Z.;Xm # 1 C.Z.#.| h.1X>XA.x.2 y y c.O.2 P I x :.G.q.H.E.E.R.9.V N ] ! ",
"q 6 $ 6 :.K.).@XU.9.G.8.j B I x A @.y x j z.C.=X-X-X-X=XZ.,X>Xb : < C.A.=X-X>X>XS.N.+.y v y f.O.u I C 2 :.G.r.L.E.E.E.8.2 7 9 # ",
"@ o X o :.G.E.`.I.9.y.7.j c D 0 U c.x v P s.x.V.C.V.B.V.;X1X>Xb - < A.;XZ.N.V.C.b.j.y v v y f.O.2 C C s :.y.9.G.R.E.E.8.1 @ @ O ",
"^ $.0 X ;.L.R.H.u.9.e.3.k c I u A c.u v Z y y a.x.l.B.Z.;Xl.z.c & : m =XA.V.z.s.v y , v Z y o.o.0 I C s 1.e.9.y.G.E.E.9.a 6 X.] ",
"<.X.6 ( 6.I.R.u.u.9.t.3.j B I u Z d.j x Z v y , Y k x.A.;Xp.a.0 : : m -XS.V.d & , j v v y y Z A y I C 2 1.t.9.u.u.U.U.9.I Q <.p ",
"` f # ,.0.G.H.u.t.8.e.3.j B D 0 v U 2 v v Z v : O % b.Z.=XV.C.n : , z.=XA.B.y % u m v v u y A o.y C C s ;.e.7.t.y.G.K.8.*.Q } $ ",
"f - O ;.7.r.9.9.w.8.e.e.k c C 2 v U y x Z Z Z y , l.V.C.C.Z.;XC # 1 x.C.Z.V.x.Z Z Z Z Z u y A o.2 B b y 8.e.9.9.8.9.r.9.3.>.d . ",
"# o O =.U.(.(.(.^.L.^.^.G i C 2 v o.y y v Z v Z , v.o.S.V.V.;Xb : , x.B.-XR x.o.v v v Z y y #.O.d m b s P._.(.^.(.(.(.(.^.8.: o ",
"p @ - :._.|. X+X X}.|.[.G u c < Z #.y y y v y v y % : b.C.N.-XS - , z.Z.B.2 , v v v v v y y @.o.y c i s ~.[.|. X X|.|.|.'.8.1 # ",
") -.M.0.t.y.G.H.u.y.y.t.n u i y Z @.y y v Z Z Z Z y a n.;XA.;Xb & < z.;XN.< , v Z Z v v y y A o.2 i 0 2 2.e.y.y.y.y.y.y.q.5.d ( ",
"c *.|.(.I.U.H.I.I.I.Y.P.k i Z y Z o.y y y y v v v G k F.z.N.-Xb & , z.l.-Xm x Z k y y y y , Z o.y B m d u.U.I.I.I.U.I.I.U._.T d ",
"I.U.}. X X XXX+X+X+X+X}.K c | x A f.y y y y y y y y y B.b v v.u % , y y B.Z y y y y y y y , U U u I C n /.OXOXOXoX+X+X XOX|.^.U.",
"{.W.y.L.I.T.`.W.R.R.E.U.G c I d Z c.u y y v y v v v y y , A c.u & , v y y v v y v v y y y 2 f.+.2 I C s u.U.R.`.R.R.T.U.T.t.R.{.",
"$X`.e.G.P.U.T.T.P.P.G.G.k b I x A c.y y A o.v y v v y y , A h.u & , Z y y y v v o.@.O.y , , h.+.2 I C s e.H.P.U.P.P.P.I.L.9.T.@X",
"$X`.e.G.K.K.K.H.u.y.y.9.k i C 2 Z @.u O.@.v y y y y v y , A h.y & , Z y y y y y y o.@.@.@.j d.O.0 C c 2 7.t.y.y.H.L.H.L.H.9.T.@X",
"$X{.u.t.y.r.y.t.e.t.e.e.j 0 b 2 v o.#.@.o.y y y x v o.v v o.c.y & , Z v v @.y y y y A +.+.U o.Z 2 b i 2 7.r.e.t.t.y.r.y.t.y.`.@X",
"$X$X|.{.{.{.{.{.{.}.}.`.G 0 B 2 v A O.o.m y y y y y y @.@.@.c.y & , F d.#.y , y y y u o.U Y U Z 2 c i s T.{.{.}.{.{.{.}.{.}.@X$X",
"!.{. X|.|.|.|.|. X}.[.).G 2 c , v Z Z o.o.o.o.o.o.o.o.o.o.o.c.y & , Z A F o.o.v o.o.o.o.A A A m < c 0 s I.[.}.|. X|.}.[._.`.}.~.",
"7.L.R.E.W.W.W.E.U.U.I.H.k 9 9 < k m v Z A o.o.o.o.o.o.v v Z @.y & : v v Z o.o.A A o.o.Z Z b v m 2 9 2 2 y.P.I.U.R.W.E.R.R.I.P.8.",
"7.G.I.R.E.R.R.I.P.K.u.u.l s j k k k j j j k k k k k k k k k k j 2 j j k k k k n k j k j j k j k k s s s t.G.G.P.I.T.U.R.R.I.H.9.",
"7.G.P.H.G.K.H.H.H.y.y.y.=.2.8.9.w.8.8.8.8.2.2.8.8.8.9.8.8.8.8.8.8.8.9.7.7.8.8.8.8.8.7.8.8.8.8.8.8.8.8.=.r.y.y.G.H.H.H.H.H.P.K.9.",
"7.t.t.q.q.q.q.q.q.q.q.q.8.y.H.U.T.K.H.H.G.9.r.y.u.K.Y.K.H.H.H.H.H.H.H.H.H.H.H.H.G.y.0.t.G.G.G.G.G.y.y.8.0.q.q.q.9.9.9.9.q.t.t.8.",
"7.q.t.t.G.G.H.G.G.H.G.G.G.H.T.W.E.R.R.R.T.u.y.K.T.W.`.).E.E.E.R.R.R.E.E.).W.W.T.U.G.y.G.P.R.E.R.I.P.H.G.t.t.u.G.G.G.G.G.G.G.u.8.",
"7.y.K.~.`.`.`.{.`.).).`.`.{.{.{.{.{.].W.E.H.L.R.W.+X@X@X@X@X@X|.{.+X@X@X@X@X@X}.`.!.G.L.U.`.{.`.`.`.`.`.~.P.I.U.U.I.U.I.I.P.L.9.",
"7.G.U.+X$X$X$X$X%XOX X@X%X$X$X$X$X$X$X XE.H.T.W.}.@X%X%X$X$X$X$X#X%X$X%X&X*X*X%X$X|.L.I.}.#X$X$X$X%X$X$X%XOXXX.X}.|.}.}.W.U.I.9.",
"8.P.W.+X$X$X$X$X%X&X$X$X&X$X$X$X%X@X%X@X`.L.T.W.{.{.{.|.|.@X$X$X$X#X%X@X%X&X%X&X$X@XU.E.}.|.|.|.@X%X*X$X&X&X&X&X$X$X$X#XXX.X}.t.",
"G.P.I.^.(./.^.(.(.(.(.(.^.(.(.T.^.(.T.T.U.I.I.U.U.I.U.U.Y.^.^.(.^.R.^.^.^.).^.^.(.(.I.P.U.I.I.I.^.(._.(.^.(.^.(.(.(.(.(.(.(.^.K."
};
