/* XPM */
static char *door_4_resized[] = {
/* columns rows colors chars-per-pixel */
"64 64 206 2 ",
"   c #070405",
".  c #0B0606",
"X  c #0D0807",
"o  c #0E0708",
"O  c #0D0A0B",
"+  c #110707",
"@  c #130907",
"#  c #110708",
"$  c #140A0A",
"%  c #1B0D0E",
"&  c #0E120C",
"*  c #14120F",
"=  c #1B100E",
"-  c #0F0F10",
";  c #130F11",
":  c #1C0E10",
">  c #0E1114",
",  c #151210",
"<  c #1A1514",
"1  c #161915",
"2  c #1B1916",
"3  c #141419",
"4  c #1E1619",
"5  c #14191E",
"6  c #1C1D1B",
"7  c #210F0E",
"8  c #230F11",
"9  c #280E16",
"0  c #231313",
"q  c #2A1515",
"w  c #241814",
"e  c #2C1917",
"r  c #261419",
"t  c #2D151A",
"y  c #221D1C",
"u  c #2C1B1B",
"i  c #301417",
"p  c #301817",
"a  c #33161B",
"s  c #331A1A",
"d  c #3B1C1D",
"f  c #1D211D",
"g  c #23211E",
"h  c #28221F",
"j  c #34211D",
"k  c #3B211D",
"l  c #1B1E22",
"z  c #261C22",
"x  c #3A1721",
"c  c #341D23",
"v  c #3C1D23",
"b  c #1C2125",
"n  c #1E252B",
"m  c #1E2430",
"M  c #1E2933",
"N  c #232422",
"B  c #2B2522",
"V  c #252A24",
"C  c #2D2925",
"Z  c #21262B",
"A  c #2A2329",
"S  c #20292F",
"D  c #2C2C2B",
"F  c #352422",
"G  c #3C2222",
"H  c #312A27",
"J  c #3B2925",
"K  c #3C272C",
"L  c #342D29",
"P  c #2D332C",
"I  c #2E382D",
"U  c #34322D",
"Y  c #39312E",
"T  c #31392F",
"R  c #212A33",
"E  c #222E39",
"W  c #292C39",
"Q  c #26303D",
"!  c #323232",
"~  c #3D3532",
"^  c #343C32",
"/  c #38363C",
"(  c #3A3B3A",
")  c #44291E",
"_  c #431C24",
"`  c #4A1E27",
"'  c #422423",
"]  c #4C2324",
"[  c #442922",
"{  c #4C2926",
"}  c #432229",
"|  c #4D252A",
" . c #452A29",
".. c #4D2A2B",
"X. c #562529",
"o. c #542B2D",
"O. c #5A2C2B",
"+. c #4B312F",
"@. c #56312D",
"#. c #5B342E",
"$. c #4E2730",
"%. c #4C2B33",
"&. c #532531",
"*. c #552D34",
"=. c #5A2C34",
"-. c #4B3837",
";. c #5C3233",
":. c #563639",
">. c #5C323B",
",. c #60332D",
"<. c #642C35",
"1. c #653335",
"2. c #6B3837",
"3. c #63343B",
"4. c #633A3B",
"5. c #72353A",
"6. c #384236",
"7. c #3E423D",
"8. c #3E4A3C",
"9. c #43483E",
"0. c #6B4035",
"q. c #7C433C",
"w. c #243545",
"e. c #263A4C",
"r. c #2C3849",
"t. c #373745",
"y. c #3B3B4B",
"u. c #273E53",
"i. c #293E53",
"p. c #353D50",
"a. c #403944",
"s. c #613940",
"d. c #773B45",
"f. c #2A4157",
"g. c #2B445B",
"h. c #2F485F",
"j. c #384457",
"k. c #31455B",
"l. c #2C4760",
"z. c #2E4A63",
"x. c #2F4E69",
"c. c #324B63",
"v. c #3F4962",
"b. c #304F6A",
"n. c #2F506C",
"m. c #31526E",
"M. c #325573",
"N. c #335877",
"B. c #395975",
"V. c #345B7B",
"C. c #444444",
"Z. c #494747",
"A. c #4C4C4C",
"S. c #455543",
"D. c #485846",
"F. c #4F504F",
"G. c #4D4351",
"H. c #574852",
"J. c #545454",
"K. c #575957",
"L. c #5B5B5A",
"P. c #7B4243",
"I. c #5F615F",
"U. c #585668",
"Y. c #636363",
"T. c #6B6C6B",
"R. c #854946",
"E. c #355F81",
"W. c #366184",
"Q. c #396385",
"!. c #376489",
"~. c #38668B",
"^. c #39698E",
"/. c #3A6C94",
"(. c #3B6F98",
"). c #3E7097",
"_. c #3C729C",
"`. c #3D76A2",
"'. c #3E79A6",
"]. c #3E7BA9",
"[. c #426F92",
"{. c #427195",
"}. c #42769E",
"|. c #46799E",
" X c #4177A1",
".X c #437AA4",
"XX c #487EA4",
"oX c #427DAA",
"OX c #4480AD",
"+X c #4982AD",
"@X c #4684B2",
"#X c #4885B2",
"$X c #4C89B6",
"%X c #4D8CB9",
"&X c #518CB5",
"*X c #518EBA",
"=X c #4F90BE",
"-X c #5291BD",
";X c #5394C2",
":X c #5799C7",
">X c #579AC8",
",X c #599CCA",
"<X c #5FA1CC",
"1X c #61A2CD",
"2X c #62A4D0",
"3X c #818181",
/* pixels */
"$ % p k $ o $ s j d 0 X r &.% q v ) = s p o . $ u , O O l u.u.u.u.l.u.> O 4 c s a < . _ ` $ a ' k % k 0 o   0 w o X o o % $ % % ",
"q a e = $ . . 7 ] _ ..$ $ : X $ # X . 8 < $ O , 5 e.u.z.n.(./.x./._./.x.l.u.j.%.%.k . % % . $ X X + 0 = @ $ o o . < 0 q t p i s ",
" .i ] + + X . + % $ @.k % q @ % o : = % O 5 M n.m.N.E.`.`.]._.M.oX].].`.(.V.N.B.B.H.A 0 8 + $ + 0 % % X X q s s 0 q ` G  .' s ] ",
"7 X % X 7 t % . . @ $ + @ { d t % 0 [ c Q h.W.'.].].].].$X%X+XB.*X%X%X%X].].].'.`.E.l.t.%.e t $ s ' d % 9 9 i d | s x z -. .# $ ",
"$ @ X o t o.[ 0 + 0 s $ $ ' 1.u r z p.f.z.^.oXoX$X%X*X%XXXoX&XM.{.XX XXX%X%X%X%XOX].!.z.k.r.B 0 q u < $ G u . % a o X . < 0 X $ ",
"X t t + d :.;.{ e i =.x d $ $ l u.z.m.~.M.oX%X&X X_._.{.^.!.^.m.x.E.!.^.).}.{. X%X%X.XN.+XN.z.i.z X X @ $ . # % o $ $ : $ X : c ",
"0 _ | $ X.q.4.;.[ ' q.X.&.N m M.V.`.'.+X^.|.(././.^.W.W.N.N.N.V.x.M.N.N.E.!.^.^./.{.|.{.-XoX_.V.n.M l t + $ 0 G # i i _ t r c =.",
"F d.*.< ] =.j 0 $ ` 2.G y.l.W.'.].oX$X+XXXV.M.V.E.V.N.M.M.M.M.M.z.M.N.N.N.N.E.E.V.M.V.XX+X$X].].'.W.h./ s p q v o x x <.G G =.d.",
"s 0.j . .   . O . + 3 w.x.^.].].%X%X.X/.!.V.m.b.M.M.M.M.M.z.l.h.g.l.x.M.M.M.B.M.n.m.V.~.^.XX%X%XoX].~.z.y.z X @ O   r $.: : ;.#.",
"X X $ = = 0 u e % < u.m.(.].@X$X}./.Q.N.N.M.M.m.c.m.f.i.f.e.b l l n e.u.f.f.n.z.n.M.M.V.V.!.).}.$XoX].(.M.e.% . $ $ . o X   . $ ",
"% 0 v _ J ] ..k v t.V.`.oX#X@X(.W.W.V.B.b.e.w.w.w.w.b 6 6 6 y h N y 6 6 4 b w.w.w.w.e.m.N.N.W.W.(.$X$X].(.N.R q s 8 7 s 0 % 7 s ",
"' o.,.o.1.5.;.+.y.b.`.].$XoX/.!.N.N.M.l.E y g 6 h y B B B B C L L F B C B B y y 6 h 6 E z.M.M.V.~./.oX%XoX(.c.a.} ' | [ d G o.=.",
">.1.1.4.5.0.-.j.c.}.@X$X}.^.V.V.M.g.R n h B H L ~ L B U Y +.~ ~ ~ ~ ~ Y L B L ~ H L F g n E h.M.V.V.^..X$XoX{.z.p.-.X.| { *.3.1.",
"X.] o.=.X._ -.n.m.N.XX{.E.W.N.M.e.Z B B H Y Y Y Y L h H y 2 2 2 2 < 2 y L h Y ~ Y Y Y H B h Z i.M.N.W.E././.M.m.c./ t q d | ] { ",
"q s j ) t r.V.`.`.Q.m.!.!.V.x.w.N H Y C C L L C < < < , , * , * , , , , < , < < H L L H C Y C N w.b.V.^.!.b.^.`._.N.m $ q u e s ",
"X $ 7 $ > x._.oX%XXXV.N.V.m.E y B L Y h < , , , * , * * * , , , < $ , , * * * * * * * 2 h Y L B z E M.V.N.E.XX$X]._.g.O # X $ = ",
"$ X X t u.^.(.OX-X^.V.M.h.M g C L Y N < * , , , * < $ , , , , , * * * , $ < , , < * * * < y Y L C y E l.m.V.).-X@X'.!.w.r < X o ",
">.[ e >.c.).).%X}.~.B.n.e.6 H Y U L C.2 * * , , * * , , , , , , , * < , , * , * * , * * < V B U Y C 6 e.m.V.^.{.=X]._.v.P.>...j ",
"3.U.t.a.c.!./.-X/.W.B.f.6 4 L U h F.J.6 1 , , , < * , * , , , $ * < * , , , , , * * * < ( T.^ y Y L 6 l g.B.W.^.;XoX_.c.Z.G.U.K ",
"-.&X|.Q.n.V.V.*X/.N.M.g.5 h B C y J.F.V f 2 , , * , , , * , * < , $ , , , , , * * < 1 6 ( Y.Z.4 C C y l g.M.V.).;X'.W.x.!.XX&XN ",
"K B.|.%X).m.V.-X/.W.M.f.6 Y Y g I Z.P f f f , , , , , , $ < * * , , , , , , , , , 6 f f 2 P A.V z Y L b g.B.W.).;X_.M.(.$X}.N.> ",
"4 g.^._.+XM.B.*X/.V.M.f.l L Y 2 V V C.f f f 1 , , $ , , , * , * , , , * * , * , < f f g T 2 V I 6 ~ L b g.N.V.).*XV.M.@X{.^.g.O ",
"3 g.W.V.V.N.m.{.V.m.x.f.6 L U 2 2 b A.f f f > * * < , , , , * < , , , , , , , * 1 f f f A.w f I 6 Y C l g.x.n.V.[.b.N.V.E.E.f.- ",
"< W l.V.V.W.W.W.!.!.W.g.6 L ~ 4 6 f C.6 f f , , , , * , , , , , , $ < * * , , , < f , V T.j.V 8.N ~ L b g.x.n.V.V.W.!.!.!.E.W J ",
"+ < g.W.^.^.E.E.E.E.V.g.l C L < 6 , b ( 1 & , , , , , , , , , * , , * < $ , , , , > f L.( Z.P S.6 L C l h.M.M.V.V.E.^./.^.b.: q ",
"% u r.u.z.b.z.z.z.l.z.f.6 h C < f & & P 1 , 1 , , , * , , , , , , , , * , , , , , & 1 P & 2 N 6.y L y l f.z.l.z.z.b.b.l.i.r.r 0 ",
"_ d d 3 g.M.M.M.M.z.m.g.6 y C < V C.P D D D 6 , * ; , , $ , * * * , * * , , , * , 6 L J.P 1 f S.b H y l h.n.z.M.M.M.N.k.c ' s ] ",
"u 8 s < g.E.W.N.M.z.m.f.6 B C < P 3X( C.! D D 6 , , , * < * , * , , < * * * * < 6 D ( T.7.( V S.6 H V l g.m.z.N.W.!.!.k.-.J 0 i ",
"7   X > l.~.^.!.!.c.m.f.6 B B < V K.A.J.! D B N , , , , * < * < * , * , , < $ < N D / K.J.I.V D.y B N l h.m.x.W./.).+Xg.~ ' . . ",
"X 8 $ 3 z.(.(.(.$XM.W.g.6 ~ ~ 2 6 N J.J.! D N z < , , * , $ , , , , , , , * * < N ! J.L.L.A.V 8.g ~ Y b l.V.x.!./.oX&Xg.O . $ r ",
"$ c _ 3 z.`.`.(.&XM.N.f.l H ~ < 6 f J.K.! D N N , , , , , , , , , , * , * , < 2 N ! K.L.F.6 N I 6 ~ B l h.V.x././.oX*Xk.3 % r &.",
"s =.&.4 z.`.'.].&Xm.m.g.6 C ~ N F.Z.K.J.! D N N , , , , , , , * , $ , , , , < N D ! J.L.F.6 f ^ V -.B b g.M.x.`._.oXoXk.c c x d.",
"G R...3 l./.`.'.`.n.n.f.6 H Y C T.( J.J.! D N z , < * * , , , , , , * , , , < N ! F.K.L.F.1 N I N ~ C l g.m.n.`.`.]._.g.z u 2.R.",
"$ u $ 3 l.!.`.(._.x.M.f.6 B H N A.f J.K.t.D D N < * * < * , , , , , , , * , < N ! A.L.L.F.N K.^ 6 L N l l.m.n.`.(.].`.u.O . w w ",
"+ @ q F l.^.`.(._.x.M.f.l L L 6 D 2 F.K.Z.U D N * $ , * , , < $ , , , , , , < N D ! C.Z.A.V I.^ 6 Y H l g.m.x._./.'._.f.< + # % ",
"i ' X...c.!.'.`./.x.n.g.l F ~ < & 1 F.( 6 1 6 y < , , , * , * , , , , , , % < N 6 1 6 Z.J.Z.I.6.y ~ L l g.M.x./.`.'._.g.s t d | ",
":.3.1.:.c.^.oX%X^.x.V.g.6 B C , , 1 A.P , 1 N 1 , , , , , , , , , , , ; , , , 2 b * f J.I.K.8.9.6 C B l h.V.x.^.`.].`.k. .%.1.2.",
"=.O.;.>.z.~.oX-X^.x.W.g.l ~ ~ < > 1 A.( D B D 2 , , , , , , * , , , , , , , , 2 D D P K.I.J.6.D.N ~ Y b l.W.x.^.].oX_.k.K &.=.O.",
"d d [ +.c.!.].;X^.x.W.g.6 L ~ 2 , f J.K.9.L D D < , * , , , * * , , , , , , 1 N D ! C.I.Y.^ 6.S.z ~ L b l.W.x.~.].]._.i.i ' s ) ",
"% 0 w F l.^.'.+X~.z.N.f.6 L L < 1 P J.K.j.L D D , , * , , $ < * , % , , , % < N D ! K.Y.J.1 I 8.f L L l h.M.x.~.`.].`.i.< % % r ",
"X X @ 3 l./.`.E.V.z.M.f.6 L Y 2 1 V V A.Z.! D N < * * < $ , < * , , , , , * < N D D ( F.f 1 P 6.f U H b g.m.z.V.E.]._.u.O . . . ",
"G 0 % &.c.(.).V.V.x.N.f.6 L ~ 1 1 N f V ! P D 1 , , , * , , * , , , , , , , , < D D D N f V V I 6 -.H l g.N.b.V.E._.(.j.s.} t : ",
"3.o.j t.z.!.E.N.M.l.M.f.l H Y < 1 b f * D D A < * , , , , , , , , , * , , , , < D ! C.2 V V V I y Y H b g.M.l.N.N.E.!.c.H.s.>.[ ",
"o.' y g.z.M.x.b.x.l.m.c.l H H < 1 V f * V D V < , * , , , , * , ; * , , , , , 1 D / K.6 V V P 6.6 L C n x.m.z.m.x.x.m.x.l.p. .e ",
"[ 0 3 z._. X X`.}.!. X/.b C V < 1 V f & 2 D N 1 * < $ , , , , , * , % , , , , < P Z.f & V V P 8.6 L B R }..X X X X X X X).c.u $ ",
"q + O z.+X*X;X*X$X$X$XXXb h C < 1 g f & > V 3 , , , , , , * , * * , , , , , , < D Z.> 1 g V P 8.6 H y S |.$X$X$X$X$X$X$XXXl.< X ",
"$ M m.c.M.N.E.E.N.N.B.b.6 y h , 1 f f f 1 N < , * , , , * < , , , * , * , , , $ 6 Z.1 f P V P I 6 h y b l.m.N.N.N.N.N.N.b.g.O   ",
"l f.-X_././.!./././.(.W.b C U < 1 f f f > 2 1 , , , , , , $ , * , , , , , * , * < N , f f f f I 6 Y B n ^././././././.(.). Xn 4 ",
"(._.&X%X%X%X;X;X;X;X;XoXn L ~ < & f f f f & > , , < * * $ < , , , , , , , * , * * & f f f f V ^ g -.C M +X=X=X;X;X=X-X-X-X$X_.{.",
"#X`.N.^.(._.].].`._.`.^.l L ~ 4 & f f f f 1 , , , * , * , , , , * , , , , , , , * 1 f V V f V S.N ~ H n !.(.`.].`.`.`./.(.N.].@X",
":X.Xb.!.^.(._._.^.!.E.M.b H ~ 2 f I V f f & > , * , * < * , * , , , < $ , * , , * 1 f V 6.T V D.N ~ H n N.W.^.).^.^.^.^.W.n.oX>X",
":X`.b.E.!.!.!.E.V.V.M.x.6 B L < f 8.f f f 1 1 & , * * * , , , , * , * , , , , = * 1 f f b 8.S.D.f L h b x.M.V.V.!.!.!.!.E.m.oX>X",
":XoXN.M.M.M.N.N.m.M.M.z.6 h C 6 8.6.b g 6 1 , * , * * * < $ , , , * < * * * < * * 1 2 f V 6.6.^ 6 H y b b.M.M.m.N.M.M.N.M.V.+X:X",
",X>X#X@X@X#X@XoX@X#X@X}.b y C 4 T P g f 1 6 1 < , , * * , , , , , , * * * * * * 1 f f g f P T T 6 C y S  X#X@X@X+X@X@X@X@X$X:X,X",
"{.$X%X$X%X$X%X%X$X$X+X{.f y h 2 V f 6 1 1 1 * * , * , < , , , = , , < $ * < * * * f f 1 f ^ T D 2 h y S |.+X$X$X$X$X$X+XoX+X#X{.",
"z./.`.].'.'.'.`.(./.^.N.l y y 1 g f f 1 1 , > > * * * * * * * * * * * * * * * * * < 1 1 2 I P V 2 y 2 n W.^.^.(.`.].`.`._./.~.l.",
"l.!./.`.`.`.`./.~.!.V.N.b l b b b b n b b b b l l l l l l l l l l l l l l l l l l l l l l l b n l n l m V.E.!.^.(.`.(.`.`.^.!.l.",
"z.!.^.W.!.W.!.W.E.V.N.M.e.l.x.m.x.z.z.z.l.l.z.z.z.z.x.z.z.z.z.l.l.c.z.z.l.z.z.z.z.l.g.l.z.z.z.z.x.c.l.e.M.M.N.E.W.E.W.W.W.^.!.z.",
"l.M.M.x.x.x.x.x.x.x.x.x.z.M.W.(.(.!.W.W.E.x.n.N.E.!.(.W.W.W.W.W.W.W.W.W.W.W.E.W.E.N.c.M.W.W.W.E.E.N.M.z.b.b.b.b.x.x.x.x.x.M.M.g.",
"l.b.M.M.E.E.E.E.E.W.W.E.E.~.`.].'.`.`.`._.M.V.!.`.].oX'..X'.`.`.`..X'..X.X].`.`./.W.N.W./._.`.`./.!.E.E.m.M.V.E.E.E.E.E.E.E.V.l.",
"z.N.^.}.oX+X+X@XoX'.'.+X@X@X@X@X@X@X+X].`.E./.`.oX:X:X:X>X>X:X$X$X:X>X>X:X:X;X@XoX/.N.^./.@X@X@XoXoXoX X{././././././././.^.!.l.",
"z.!.}.;X,X,X,X,X<X-X%X>X,X,X,X:X,X,X:X$X`.E.`.].$X:X,X,X,X,X,X,X>X,X,X,X1X2X2X2X>X+X!.(.%X>X>X>X,X1X,X,X<X*X*X*X$X$X$X#X].(.^.z.",
"x./.oX;X,X,X>X>X1X1X>X,X1X,X:X,X>X,X>X:X'.~.`.].$X@X$X$X%X>X,X,X>X,X>X,X1X1X<X<X>X;X(.`.$X$X$X%X,X1X2X,X1X1X1X<X>X>X,X:X%X*XoXb.",
"E./.(. X}.}..X X}.}.}. X}. X X X X X X_.(.^././.(./.(././.}.}.}. X X X}.}. X X X}.}././././././.}. XXX X}. X}. X X X X X X X}.W."
};
