/* XPM */
static char *door_6_resized[] = {
/* columns rows colors chars-per-pixel */
"64 64 197 2 ",
"   c #0B0606",
".  c #0C0807",
"X  c #0D0708",
"o  c #0E0909",
"O  c #120807",
"+  c #120708",
"@  c #140B0B",
"#  c #1B0D0D",
"$  c #0F120D",
"%  c #15110F",
"&  c #1C110F",
"*  c #140D12",
"=  c #1E0F11",
"-  c #0F1215",
";  c #151210",
":  c #1A1513",
">  c #161915",
",  c #1B1916",
"<  c #14141A",
"1  c #1B161B",
"2  c #1C1D1C",
"3  c #22100E",
"4  c #240F12",
"5  c #290F14",
"6  c #241314",
"7  c #2B1516",
"8  c #2C151A",
"9  c #241818",
"0  c #221E1C",
"q  c #2D1A1A",
"w  c #321517",
"e  c #301916",
"r  c #32161A",
"t  c #331A1B",
"y  c #3A1B1D",
"u  c #1E221D",
"i  c #24211E",
"p  c #28221F",
"a  c #36211C",
"s  c #3B231E",
"d  c #171B22",
"f  c #1B1E21",
"g  c #231D22",
"h  c #2C1E25",
"j  c #351C22",
"k  c #3B1C23",
"l  c #1C2125",
"z  c #1D232A",
"x  c #1E2834",
"c  c #242523",
"v  c #2C2623",
"b  c #252A24",
"n  c #2C2A26",
"m  c #21242A",
"M  c #2C2C2C",
"N  c #332121",
"B  c #3C2324",
"V  c #312A27",
"C  c #3D2A25",
"Z  c #33242D",
"A  c #342D2A",
"S  c #3A282C",
"D  c #2D322B",
"F  c #33342E",
"G  c #39312E",
"H  c #212B35",
"J  c #232E3D",
"K  c #2B2E3E",
"L  c #322F3F",
"P  c #23313D",
"I  c #323232",
"U  c #3C3431",
"Y  c #353A32",
"T  c #3C3935",
"R  c #30333F",
"E  c #38363F",
"W  c #3C3D3C",
"Q  c #48231F",
"!  c #441C24",
"~  c #442323",
"^  c #4B2425",
"/  c #422825",
"(  c #482729",
")  c #4C242B",
"_  c #422B2A",
"`  c #4D2C2B",
"'  c #57272A",
"]  c #532C2C",
"[  c #5A2D2C",
"{  c #473129",
"}  c #4A322E",
"|  c #56352E",
" . c #4C2630",
".. c #412C34",
"X. c #4E2C36",
"o. c #512931",
"O. c #5C2C34",
"+. c #4C3332",
"@. c #413A36",
"#. c #463238",
"$. c #553333",
"%. c #5A3433",
"&. c #543C34",
"*. c #5D3B35",
"=. c #5E3239",
"-. c #593A3A",
";. c #642C34",
":. c #643135",
">. c #6B3433",
",. c #643A33",
"<. c #63363B",
"1. c #6B3A39",
"2. c #773C38",
"3. c #3B4639",
"4. c #4C403D",
"5. c #6F4238",
"6. c #243544",
"7. c #253748",
"8. c #263A4C",
"9. c #2E3B4E",
"0. c #363744",
"q. c #333B4B",
"w. c #273E52",
"e. c #283E52",
"r. c #353E51",
"t. c #413645",
"y. c #533D43",
"u. c #673B44",
"i. c #33404B",
"p. c #2B4156",
"a. c #2B445B",
"s. c #2B485F",
"d. c #3A4759",
"f. c #2C4760",
"g. c #2E4B64",
"h. c #2F4E69",
"j. c #344760",
"k. c #314C66",
"l. c #304F6A",
"z. c #2F516D",
"x. c #31526E",
"c. c #2F5270",
"v. c #325573",
"b. c #335877",
"n. c #345B7B",
"m. c #385D7B",
"M. c #444544",
"N. c #49424B",
"B. c #4C4D4C",
"V. c #4F504F",
"C. c #474655",
"Z. c #535352",
"A. c #595959",
"S. c #7B474B",
"D. c #4C5261",
"F. c #4B5A70",
"G. c #47647B",
"H. c #813E3C",
"J. c #355F81",
"K. c #366184",
"L. c #3A6384",
"P. c #376489",
"I. c #38668B",
"U. c #39688E",
"Y. c #3A6C94",
"T. c #3B6F98",
"R. c #3D7097",
"E. c #3C739D",
"W. c #3D76A2",
"Q. c #3E79A6",
"!. c #3E7AA8",
"~. c #427194",
"^. c #42769E",
"/. c #45789E",
"(. c #4177A1",
"). c #427AA3",
"_. c #497EA4",
"`. c #417DAB",
"'. c #487FA8",
"]. c #4481AE",
"[. c #4982AD",
"{. c #4583B1",
"}. c #4885B2",
"|. c #4C89B5",
" X c #4D8CB9",
".X c #508CB6",
"XX c #518EBA",
"oX c #4F90BE",
"OX c #5291BE",
"+X c #5394C2",
"@X c #5799C7",
"#X c #589AC7",
"$X c #579AC8",
"%X c #5A9CCA",
"&X c #5FA1CD",
"*X c #61A2CD",
"=X c #62A4D0",
/* pixels */
"X @ a t y ;   k ) + r k s & s 6 . . * 9     X o @ * * 6 S p.p.w.a.a.e.g 1 *  .k @ r ~ t & s 6     6 6   + X o @ + * 6 / & O   6 ",
"X   e Q ) B + @ # X @ X . O 6 : . # @ .   # 7 g h e.e.g.v.T.U.c.T.T.Y.h.f.e.9.d * @     @ 6 ; o @ o . . : 6 7 8 r w w 6 @ .   + ",
"  . @ # 6 %.7 6 4 O @ O 6 # #     6 t w 7 m 0.l.v.v.J.W.Q.!.T.v.`.!.!.Q.T.n.v.x.h.x f 6 3 #     7 t e 6 7 ! B _ ~ t ^ 3   .   . ",
"7 O     @ @ . # ] w 8 @ q ~ y 3 5 5 w h q.g.L.Q.!.!.!.`. X X'.m.+X X X|.`.!.!.!.W.J.f.0.k y # 5 5 8 ~ ) q ! h @._   @ + @ w 4 . ",
"] s &   7 w % # ] ] 9 & 7 e 9 @ N S 6.w.g.Y.!.]. X XXX|.).'.|.v.^.'.).'. X XXX X].!.U.g.d.9.2 B e   * 8 + X   4 4 X o . 3 ) ` q ",
"*.[ ~ 6 y [ t e @ # . O #   . d p.g.n.I.v.]. X|.^.E.E.~.I.I.I.h.l.J.P.P.T.^.^.(.|.XX).v._.v.f.p.d O #   @ + = +   = j O 6 O.%.] ",
"5.<.| s ] 2.' ) O @ % # o l x b.J.W.).[.U./.Y.Y.I.I.P.J.m.b.m.n.g.v.b.b.J.J.P.U.Y.R.^.~.OX!.E.n.z.H Z @ r 8 ! 8 9 j O.# y 2.5.<.",
"{ t : 3 ;.:.7 6 7 e t h 6.g.P.!.!.`.|.[./.n.m.n.J.J.b.b.v.v.v.v.g.v.b.b.n.b.J.J.n.b.n.'.[.|.!.!.Q.J.f.x k k ;.k B O.2.6 y O.C 7 ",
". . o   X o     & 7 f 9.z.Y.!.]. X|.^.U.L.n.x.h.v.b.v.v.v.g.s.s.e.g.l.v.v.v.v.v.h.x.n.I.U.). X X!.Q.U.g.6.Z  .# ; ,.` o .     . ",
"9 q 6 # # 5 4 +   ; p.b.E.!.}.}.^.R.K.n.n.v.x.x.l.x.e.e.e.7.c f f m 8.e.w.p.v.g.x.v.v.m.n.P.R./. X{.!.T.v.w.*       . & & 6 9 t ",
"^ ` y k B ..h 4 3 K n.W.`.}.].Y.L.K.b.v.g.8.6.6.6.J 2 2 2 2 0 p c 9 f 2 2 c 6.6.6.6.7.h.b.b.K.K.Y.}.|.!.E.n.K 6 # 6 t ! B ^ ` / ",
">.+.+.| >.o...j q.x.Q.].|.'.U.P.b.v.v.s.H 2 i 0 g 0 v v V v V A A V v v v p 0 0 0 c 2 J g.v.v.m.I.Y.`. X!.E.k.R B ) ;.[ =.>.:.} ",
"*.&.,.1.,.[ ..r.x./.].|.^.P.n.n.v.p.x z i v A A U A v A G U U U U U U U A v A U V A v i z J a.v.n.n.U.). X`.^.k.q.<.:.,.1.2.&.%.",
"/ _ ` _ N r L x.x.m.[.Y.K.K.b.z.8.c v v A G G G U A p A 2 , , , 9 , , 2 A i G U G G G A v p m e.v.b.L.J.Y.Y.v.x.l.#.] [ O.~ _ / ",
"7 r j ; * J K.W.E.m.x.I.P.b.g.P i A G v v A A v : : ; : ; ; ; # # % % ; ; ; : , V A A v v G V c 6.h.m.P.I.l.L.W.E.m.0./ w 7 7 j ",
"  # @ @ < z.W.`. X_.n.b.n.h.H i v G G 0 , ; ; ; % % % % ; ; ; ; ; ; ; ; % ; ; % ; % ; : p G A v 0 J v.n.v.n.'. X`.E.g.1   + + @ ",
"X X 4 C p.U.E.{.XXU.m.z.a.x i v G G 0 ; % ; % ; ; % ; ; ; ; ; ; ; % ; ; % ; ; ; ; ; ; ; ; i G A v c H f.x.m.R.OX].!.U.8.B 6 X X ",
"o.r # f h.E.^. XR.I.v.h.6.2 V G V > % ; ; ; ; ; ; ; ; ; ; % ; ; ; ; ; ; ; ; ; ; % ; ; ; ; ; 9 G G v 2 8.x.b.I.~.oX!.E.x.S.' ) # ",
"-.d.z x g.I.Y.XXU.K.v.w.2 0 A G : > % ; ; ; ; ; ; ; ; ; ; ; ; ; ; ; % ; ; ; ; % ; ; ; ; ; ; ; , G A 2 f a.v.m.I.+X`.E.g.N.t.D.< ",
"q.+X^.K.k.m.I.XXI.b.v.w., i v v , 2 % % ; ; % ; ; % ; ; ; ; ; % ; ; ; ; ; ; ; ; ; ; ; ; ; ; * , v v 0 2 a.v.n.R.+X`.P.h.L./.|.g ",
"l L.).|.U.l.I.XXY.J.v.w.2 G A c Y , , % ; % ; ; ; ; % ; ; ; ; ; % ; ; ; ; ; % ; ; % ; ; % > > Y v U A f a.b.K.Y.+XE.x.E.|./.v.< ",
"< g.Y.W.'.x.L.OXU.n.v.9.g G G > 2 u u > ; ; ; ; ; ; ; ; ; ; % ; ; ; ; ; ; ; ; ; ; ; ; ; ; u c b M T A f p.v.n.R.OXn.b.].^.U.s.B ",
"Z h.J.n.m.v.x.~.n.h.h.e.2 A A : , u u 2 : ; ; ; ; ; ; ; ; ; ; ; ; ; % ; ; ; ; ; ; ; ; ; u D B.b Y U V f p.z.z.n.~.l.b.n.n.K.j.u.",
"0 q.g.n.n.P.P.L.P.P.J.w.2 G U ; $ > u u % ; ; % % ; ; ; ; % ; ; % ; ; ; ; % ; ; ; ; ; : u c B.b Y T A 2 a.z.x.b.n.P.P.P.P.m.R k ",
"  0 l.J.I.I.J.K.J.J.m.w.2 A V : > > u 2 ; ; ; ; ; ; ; % ; ; ; % ; ; ; ; ; ; ; % ; ; ; ; > u B.n Y G v d p.v.v.b.b.m.U.U.U.z.: 7 ",
"  < e.C.g.k.g.g.g.f.f.w.2 p v : M M.> $ ; ; ; ; ; ; ; ; ; % ; ; ; ; % ; ; ; ; ; ; ; ; % 2 B.V.b Y A i 2 p.g.g.g.g.h.l.f.w.6.* @ ",
"X   = S s.v.v.v.v.f.v.e.2 i v : M V.D 2 ; ; ; ; ; ; ; ; ; ; ; % ; ; ; ; ; ; ; ; ; % ; 2 F A.V.l D A i 2 a.z.g.v.b.v.b.s.< . . . ",
"@ X   - s.K.K.n.v.g.x.e.2 v v 2 M.V.I b i ; ; ; ; % ; ; ; ; ; ; ; % ; ; ; % ; ; ; ; : c I Z.V.u F A v 2 a.v.f.b.K.P.I.s.; # o   ",
"! 7 O < g.U.I.I.L.g.v.8.2 v p 0 A.Z.I c g ; ; ; ; ; ; ; ; ; ; ; ; % ; ; ; % ; ; % ; ; c M W B.u F v p 2 a.v.g.K.U.R.[.g.9 ! y : ",
"&.` e 2 h.E.Y.^.[.x.K.9.l U G i Z.Z.I c c : ; ; % ; ; ; ; % ; ; ; ; ; ; ; ; ; ; ; ; : c M I B.c 3.Y G l s.m.z.P.Y.).XXh.g o.| ^ ",
",.:.] S h.Q.W.E..Xx.b.p.2 V G i A.Z.M c 0 ; ; ; ; ; ; % ; ; ; ; ; ; % ; ; ; ; ; ; ; < c M I B.b F @.v 2 a.n.z.Y.Y.`. Xh.j >.,.:.",
"5.$.B v h.W.Q.!.[.x.x.e.2 A G i V.W M c g ; ; ; ; ; ; ; ; ; % ; ; ; ; ; ; ; % ; ; ; 9 c I B.Z.b D T n 2 p.x.z.E.W.Q.].g.o.H.*.o.",
"* X   - g.Y.Q.`.^.l.x.w.2 A G i B.I M c c ; ; ; ; % ; ; ; ; ; ; ; % ; % ; ; ; ; ; : c v I Z.A.B.I U n f a.c.h.W.Q.!.E.f.< = @ . ",
"@ = = < g.U.W.T.Y.k.x.w.2 v v 0 B.I M c i ; ; ; ; ; ; ; % ; ; ; ; ; ; ; ; ; % ; ; ; 2 c M I B.Z.D A c f p.c.h.W.Y.Q.W.f.< + # 6 ",
"N / 8 h g.Y.W.Y.T.h.v.w.2 A A i B.I n v c ; ; % ; ; % ; ; ; ; % ; ; % ; % ; ; ; ; ; ; 0 M M Y V.F G V 2 a.c.h.E.Y.Q.W.g.c y N / ",
";.] ( U g.Y.W.W.U.g.v.e.2 G G i B.M 2 c 2 ; ; ; ; ; ; ; ; ; ; ; ; ; ; ; ; ; ; ; ; ; ; ; > 2 I V.T @.V f a.c.h.U.W.Q.E.g.+.[ O._ ",
"5.$.*.4.k.U.`. XK.h.J.w.2 v v 0 B.n $ > ; ; ; ; ; ; ; ; ; ; % ; ; % ; ; ; ; ; % ; ; ; % > % b Y Y M v 2 a.J.h.U.!.!.E.l.u.2.,.-.",
"{ } %.-.l.Y.{.+XP.h.J.w.f U G 2 E M > o % ; % ; % ; ; ; ; ; ; ; ; ; ; ; ; ; ; ; ; ; ; c 3.n D D Y @.G f f.J.h.P.Q.!.E.k.=.[ } } ",
"j j ~ M g.U.{.XXP.h.J.e.2 G G 9 D M c > % % ; ; ; ; % ; ; ; ; ; ; ; ; ; % % ; ; ; ; : m I Z.i.F Y @.A u a.J.h.U.Q.!.E.k.S y j k ",
"@ 5 4 < g.U.`.`.J.h.m.e.u A A i Z.M.M c : ; ; ; % ; ; ; % ; ; ; ; ; % ; ; * ; ; ; ; : c I A.V.F Y G A 2 a.b.h.U.W.!.E.g.: @ # 7 ",
"    @ v k.T.E.J.b.g.x.w.2 A G 0 Z.Z.M : ; ; ; ; ; ; ; % ; ; % ; % ; ; ; ; % ; ; ; ; ; 2 I M.c D Y T n f p.x.g.m.J.Q.W.g.* +     ",
"8 5 5 v l.T.T.n.n.l.b.p.2 G G , I V.M ; ; ; ; ; ; % ; ; ; ; ; ; ; ; % ; ; ; ; ; ; % % : c > b b T @.A 2 a.n.g.n.J.E.T.k.u.) 8 # ",
"=.7 * 6.h.P.J.v.x.f.v.e.2 A A : D V.M 1 ; ; ; ; ; ; ; ; ; ; ; ; ; ; ; ; ; ; ; ; ; ; % : b > b b Y U A f p.v.g.v.v.J.J.g.C. .o.@ ",
"a # f g.g.v.l.l.x.f.x.s.l A V > D Y M c ; ; ; ; ; ; ; % ; % ; ; % ; ; ; ; ; % ; ; ; ; : M 3.F b Y G v f h.c.g.h.h.z.v.g.f.r.t @ ",
"@ + Z x.W.(.(.(.E.I.'.U.c V v , b b , f ; ; ; ; ; ; ; ; % ; ; ; ; ; ; ; ; ; ; ; ; ; ; : I M.D b Y F p c R.`.(.(.(.(.(.(.^.f.1 @ ",
"  @ d x.}..X+XXX|.|.|.~.2 p v > c b > c : ; ; ; % ; ; ; ; ; ; ; ; ; % ; ; ; ; % ; ; ; , c > b b Y n i z /.[.|..X|..X|.|._.f.* O ",
": C.G.h.v.n.J.J.n.v.m.g.2 i p > b b > c ; ; ; ; ; ; % ; ; ; ; % ; ; ; ; ; ; ; ; ; ; % : b l b b Y n 0 2 f.v.v.n.m.v.b.v.x.p.j 1.",
"#.F.+XT.T.Y.J.Y.Y.Y.Y.n.l v A > u i > v ; ; ; ; ; ; ; ; ; ; ; ; ; % ; ; % ; ; ; ; ; ; ; 2 b b i Y U v l P.Y.Y.Y.Y.Y.Y.Y.^._.y.X.",
"T.)..X X X X X+X+X+X+X(.c A U , u u u > % % ; ; ; ; % ; ; ; % ; ; % ; ; ; ; ; ; ; ; % % u u u u Y @.V z ].XXoXoXoX+XoXXXoX X/.R.",
"{.E.v.U.Y.W.`.!.W.W.Q.P.l A U : u i u u $ % % ; ; ; ; ; ; ; ; ; ; ; ; ; % ; ; ; ; % % > $ i b b Y @.A l K.R.E.`.W.W.E.R.E.v.W.}.",
"@XT.l.I.Y.T.T.T.U.U.J.h.f A U , b u u u > ; ; ; ; ; ; ; ; ; ; ; ; ; % ; ; ; ; % ; % % $ > b 3.l Y @.V l v.K.U.T.U.U.U.U.P.z.W.$X",
"+XE.h.L.P.P.U.K.b.b.v.f.2 v V 2 D u u u % % ; ; ; % ; ; ; % ; ; ; ; ; ; ; ; ; ; ; ; > % > u Y 3.Y G p 2 h.v.b.n.P.U.P.P.K.z.W.$X",
"@XW.c.v.b.v.v.v.v.z.v.s.2 p v 2 Y u u u > ; ; ; ; ; ; ; ; ; ; ; ; ; ; ; ; ; % ; ; ; % ; > 2 b 3.D A i 2 g.z.z.v.v.v.v.v.v.b.].$X",
"#X@X}.{.{.{.{.{.}.}.}.~.f i v , b i > > % ; ; % % ; ; % ; ; % ; % ; ; ; ; ; ; ; ; ; ; ; , ; > D D A i z ).}.}.{.{.}.{.}.].|.$X%X",
"^.|. X|. X|. X|.|.|.[.U.2 i p : l ; ; ; % % ; ; ; ; ; ; % ; ; ; ; ; % ; % ; ; ; ; ; ; ; ; ; ; u b p i l ^.[.|.|.|.|.|.[.[.].[.~.",
"l.Y.Q.Q.!.!.Q.W.T.U.U.b.2 0 , : , ; % % % % % % % % % % % % % % % % % % % % % % % % % ; ; ; ; ; , i 9 l n.U.Y.T.Q.!.!.E.E.U.U.g.",
"h.I.Y.Q.W.!.E.Y.U.K.n.v.l l l d d l l l d l 2 d d f f f f f d f f f l f f f f f f f f d l l d l d z f f n.n.P.U.Y.W.Y.W.W.U.K.h.",
"z.I.I.K.K.K.K.K.J.b.b.z.8.g.g.z.z.g.g.g.g.a.g.g.g.g.h.g.g.g.f.g.g.f.f.f.g.f.g.g.k.f.a.f.g.g.g.g.g.g.g.8.v.b.b.J.K.K.K.K.K.U.K.g.",
"g.v.v.g.h.h.h.h.h.h.h.g.g.b.P.E.Y.K.K.K.n.g.v.n.K.P.Y.P.K.K.K.K.K.K.K.K.K.K.K.K.J.v.k.b.J.J.K.K.J.m.v.g.l.k.l.l.h.h.h.h.h.c.v.f.",
"f.x.v.v.J.K.K.K.K.K.J.K.K.U.W.!.!.W.W.Q.E.v.n.P.E.!.`.).W.!.Q.W.W.!.!.(.!.W.!.W.Y.J.b.P.Y.W.W.E.Y.P.P.n.v.v.J.J.J.J.J.J.J.J.J.g.",
"g.J.I.^.].].].].`.!.!.].].].{.{.{.{.].!.E.J.U.!.].@X$X@X$X$X@X}.}.@X$X$X+X#X+X}.`.Y.n.I.T.`.{.{.`.`.`.(.~.Y.Y.Y.Y.Y.Y.Y.Y.Y.P.g.",
"h.I.).$X%X%X$X%X%XXX X%X&X%X%X$X%X%X@X}.W.J.Q.!. X%X%X%X%X%X%X%X%X%X%X&X*X=X=X*X#X[.P.T. X#X%X#X%X*X%X%X&XXX.X.X|.}.|.|.!.T.U.h.",
"v.E.`.#X#X%X%X%X*X*X%X%X&X%X$X%X%X$X%X+XW.I.Q.!.{.|.|.|. X#X%X#X$X#X#X%X&X*X*X*X#X+XT.!.|.|.|. X#X*X=X%X&X&X*X*X$X$X#X#X X X{.h.",
"K.Y.T.(././.^.^.^.^./.^.^.W./.W.^./.W.W.Y.U.Y.T.T.Y.Y.Y.Y.^./.(.(.(.(.^.(./.^.(.(.W.U.Y.Y.Y.Y.Y.^.^._.).).(.(.(.(.(.^.).).(.^.K."
};
